<svg width="29" height="36" viewBox="0 0 29 36" fill="none" xmlns="http://www.w3.org/2000/svg">
<g clip-path="url(#clip0_1_1142)">
<g clip-path="url(#clip1_1_1142)">
<path fill-rule="evenodd" clip-rule="evenodd" d="M13.5043 27.264C15.8557 29.0203 18.4002 30.502 21.0883 31.68C21.9483 32.1162 22.8695 32.4195 23.8205 32.5795H23.8887C25.7587 32.5795 28.1741 29.039 28.4611 27.8899C28.6298 27.2191 28.6012 26.5139 28.3788 25.8589C28.1564 25.204 27.7496 24.6271 27.2074 24.1977L24.697 22.2192C24.0801 21.7293 23.3151 21.4636 22.5274 21.4656C21.6407 21.4657 20.7867 21.8003 20.136 22.4025C19.7065 22.7857 19.3055 23.1996 18.936 23.6409C18.9061 23.6552 18.8731 23.6618 18.84 23.6601C17.7888 23.6601 14.111 20.4269 13.129 19.3939C12.0845 18.383 8.85121 14.6246 8.90881 13.6032C8.90646 13.5857 8.90828 13.5678 8.91412 13.5512C8.91996 13.5345 8.92965 13.5194 8.94241 13.5072C9.37531 13.1393 9.77997 12.7395 10.153 12.311C10.7181 11.6858 11.0458 10.882 11.079 10.0399C11.1121 9.19779 10.8486 8.37075 10.3344 7.70302L8.37601 5.16478C8.11708 4.83959 7.80598 4.55962 7.45537 4.3363C7.01181 4.05693 6.51117 3.88076 5.99041 3.82078C5.8471 3.80254 5.70286 3.7926 5.55841 3.79102C5.27682 3.79038 4.99625 3.82489 4.72321 3.89374C3.72193 4.1539 1.02222e-05 6.5971 0.0864102 8.59102C0.244329 9.55042 0.544259 10.481 0.97633 11.352C2.13951 14.0664 3.60647 16.6402 5.34913 19.0243C7.63601 22.1668 10.3856 24.9448 13.5043 27.264Z" fill="#2998D3"/>
</g>
</g>
<defs>
<clipPath id="clip0_1_1142">
<rect width="28.8" height="36" fill="white"/>
</clipPath>
<clipPath id="clip1_1_1142">
<rect width="28.8" height="29.76" fill="white" transform="translate(0 3.11914)"/>
</clipPath>
</defs>
</svg>
