<svg width="37" height="30" viewBox="0 0 37 30" fill="none" xmlns="http://www.w3.org/2000/svg">
<g clip-path="url(#clip0_1_1073)">
<g clip-path="url(#clip1_1_1073)">
<g clip-path="url(#clip2_1_1073)">
<path fill-rule="evenodd" clip-rule="evenodd" d="M42.8207 15.0586C42.6659 12.6193 41.8009 10.2785 40.3324 8.3246C38.7723 6.25336 36.7203 4.6039 34.3622 3.52555C34.353 3.51738 34.3448 3.51738 34.3356 3.5082C34.061 3.38362 33.7853 3.25905 33.5004 3.14367C33.4738 3.13448 33.4381 3.11712 33.3983 3.10793C33.1137 2.99221 32.8295 2.88534 32.5457 2.78732L32.466 2.76077C31.9055 2.57085 31.3337 2.41462 30.7568 2.2778C32.8722 5.96976 33.444 10.3478 32.3476 14.4592C31.1076 18.8354 28.2493 22.5761 24.3526 24.9221C22.3642 26.1641 20.1972 27.0939 17.927 27.679C20.5229 28.9781 23.3827 29.6632 26.2855 29.6814C28.4818 31.4539 30.7292 33.1744 32.951 34.9103C33.2792 32.6598 33.5991 30.4033 33.9109 28.1406C36.7791 26.9277 39.2176 24.8826 40.9113 22.2694C42.2672 20.1163 42.9333 17.6005 42.8207 15.0586ZM22.4942 -1.99233C19.3215 -3.92272 15.6747 -4.9334 11.9608 -4.91157C9.70912 -4.90925 7.47286 -4.53952 5.34021 -3.81698L5.25342 -3.78839C4.94506 -3.6822 4.63669 -3.56648 4.32833 -3.44123C4.28953 -3.43204 4.25073 -3.41264 4.22622 -3.40345C3.9199 -3.27786 3.61358 -3.14307 3.32053 -3.00727C3.31032 -2.99706 3.30113 -2.99706 3.29194 -2.98787C0.733702 -1.81938 -1.49271 -0.031298 -3.18575 2.2145C-4.77974 4.33366 -5.7189 6.87288 -5.88751 9.51925C-6.00839 12.2748 -5.28562 15.0016 -3.81575 17.3356C-1.97864 20.1705 0.666573 22.3893 3.77797 23.705C4.11833 26.1556 4.46515 28.6034 4.81844 31.0486C7.22817 29.1667 9.6665 27.3043 12.0466 25.3837C19.4188 25.3643 27.3413 21.1472 29.3844 13.6495C31.0907 7.42503 27.7752 1.27817 22.4942 -1.99233ZM4.9134 12.6825C4.50951 12.6825 4.11468 12.5628 3.77885 12.3384C3.44302 12.114 3.18127 11.795 3.02671 11.4219C2.87214 11.0487 2.8317 10.6381 2.9105 10.242C2.98929 9.84585 3.18379 9.48197 3.46939 9.19637C3.75499 8.91078 4.11886 8.71628 4.515 8.63748C4.91114 8.55869 5.32175 8.59913 5.6949 8.75369C6.06805 8.90826 6.38699 9.17 6.61139 9.50583C6.83578 9.84166 6.95555 10.2365 6.95555 10.6404C6.95555 11.182 6.74039 11.7014 6.35742 12.0844C5.97444 12.4674 5.45501 12.6825 4.9134 12.6825ZM12.6072 12.6825C12.2033 12.6825 11.8085 12.5628 11.4726 12.3384C11.1368 12.114 10.8751 11.795 10.7205 11.4219C10.5659 11.0487 10.5255 10.6381 10.6043 10.242C10.6831 9.84585 10.8776 9.48197 11.1632 9.19637C11.4488 8.91078 11.8126 8.71628 12.2088 8.63748C12.6049 8.55869 13.0155 8.59913 13.3887 8.75369C13.7618 8.90826 14.0808 9.17 14.3052 9.50583C14.5296 9.84166 14.6493 10.2365 14.6493 10.6404C14.6493 11.1818 14.4343 11.7011 14.0516 12.084C13.6688 12.467 13.1486 12.6823 12.6072 12.6825ZM20.301 12.6825C19.8971 12.6825 19.5022 12.5628 19.1664 12.3384C18.8306 12.114 18.5688 11.795 18.4143 11.4219C18.2597 11.0487 18.2193 10.6381 18.2981 10.242C18.3769 9.84585 18.5714 9.48197 18.857 9.19637C19.1426 8.91078 19.5064 8.71628 19.9026 8.63748C20.2987 8.55869 20.7093 8.59913 21.0825 8.75369C21.4556 8.90826 21.7746 9.17 21.999 9.50583C22.2233 9.84166 22.3431 10.2365 22.3431 10.6404C22.3431 10.9087 22.2902 11.1745 22.1875 11.4224C22.0847 11.6703 21.9341 11.8955 21.7443 12.0851C21.5544 12.2748 21.3291 12.4252 21.0811 12.5277C20.8331 12.6302 20.5673 12.6828 20.2989 12.6825H20.301Z" fill="#2998D3"/>
</g>
</g>
</g>
<defs>
<clipPath id="clip0_1_1073">
<rect width="36.16" height="29.38" fill="white" transform="scale(1.02107)"/>
</clipPath>
<clipPath id="clip1_1_1073">
<rect width="36.16" height="29.38" fill="white" transform="scale(1.02107)"/>
</clipPath>
<clipPath id="clip2_1_1073">
<rect width="48" height="39" fill="white" transform="translate(-6.04475 -4.91192) scale(1.02107)"/>
</clipPath>
</defs>
</svg>
