<svg width="19" height="19" viewBox="0 0 19 19" fill="none" xmlns="http://www.w3.org/2000/svg">
<g clip-path="url(#clip0_1_1222)">
<path fill-rule="evenodd" clip-rule="evenodd" d="M13.3 9.85464L7.44618 14.7476V4.96441L13.3 9.85464ZM9.68094 18.981C11.4849 18.9808 13.2483 18.4457 14.7482 17.4433C16.248 16.4408 17.4169 15.0162 18.1071 13.3494C18.7972 11.6827 18.9776 9.84872 18.6254 8.07945C18.2733 6.31018 17.4043 4.68508 16.1285 3.40966C14.8527 2.13425 13.2274 1.2658 11.458 0.914145C9.68862 0.562491 7.8547 0.743426 6.18816 1.43407C4.52162 2.12471 3.09731 3.29404 2.09535 4.79418C1.09339 6.29433 0.558784 8.0579 0.559142 9.86188C0.557831 11.06 0.792899 12.2466 1.25088 13.3538C1.70886 14.4609 2.38076 15.4668 3.2281 16.3139C4.07543 17.161 5.08155 17.8326 6.18884 18.2903C7.29612 18.7479 8.48281 18.9826 9.68094 18.981Z" fill="white"/>
</g>
<defs>
<clipPath id="clip0_1_1222">
<rect width="18.77" height="18.77" fill="white" transform="scale(1.01225)"/>
</clipPath>
</defs>
</svg>
