<svg width="12" height="38" viewBox="0 0 12 38" fill="none" xmlns="http://www.w3.org/2000/svg">
<g clip-path="url(#clip0_1_445)">
<path fill-rule="evenodd" clip-rule="evenodd" d="M9.55103 2.75494C9.71072 2.78301 9.87467 2.77497 10.0308 2.73139C10.187 2.68782 10.3315 2.60982 10.4535 2.50313C10.5756 2.39644 10.6723 2.26376 10.7364 2.11483C10.8005 1.9659 10.8304 1.80451 10.824 1.64249C10.832 1.47997 10.8031 1.31775 10.7396 1.16797C10.676 1.01818 10.5794 0.884708 10.457 0.777533C10.3345 0.670358 10.1894 0.592255 10.0326 0.549069C9.87568 0.505882 9.71106 0.498729 9.55103 0.528145H6.16903C1.79334 0.528145 1.55489 3.31354 1.55489 5.62014V32.5915C1.55489 36.9691 4.33934 37.2066 6.64688 37.2066H9.55103C9.70945 37.2274 9.87047 37.2141 10.0233 37.1676C10.1762 37.1211 10.3174 37.0426 10.4375 36.9372C10.5576 36.8318 10.6538 36.702 10.7197 36.5565C10.7856 36.4109 10.8197 36.253 10.8197 36.0932C10.8197 35.9335 10.7856 35.7755 10.7197 35.63C10.6538 35.4845 10.5576 35.3547 10.4375 35.2493C10.3174 35.1439 10.1762 35.0653 10.0233 35.0189C9.87047 34.9724 9.70945 34.9591 9.55103 34.9798H6.44738C4.41819 34.9798 3.94129 33.8664 3.94129 32.4737V5.26199C3.94129 3.67264 4.61769 2.75494 6.44738 2.75494H9.55103Z" fill="#08536F"/>
</g>
<defs>
<clipPath id="clip0_1_445">
<rect width="11.73" height="37.81" fill="white" transform="scale(1.00502)"/>
</clipPath>
</defs>
</svg>
