<svg width="48" height="32" viewBox="0 0 48 32" fill="none" xmlns="http://www.w3.org/2000/svg">
<g clip-path="url(#clip0_1_747)">
<g clip-path="url(#clip1_1_747)">
<path fill-rule="evenodd" clip-rule="evenodd" d="M47.7743 17.1231C47.9326 17.3405 48.0063 17.6082 47.9817 17.876C47.9571 18.1438 47.8358 18.3935 47.6405 18.5784L35.2483 29.5224C35.1485 29.6153 35.0307 29.6866 34.9021 29.732C34.7736 29.7774 34.637 29.7958 34.5011 29.7863C34.3651 29.7767 34.2325 29.7393 34.1116 29.6763C33.9907 29.6134 33.884 29.5262 33.7981 29.4203L32.9617 28.4154C32.7824 28.1963 32.6931 27.9173 32.7121 27.6348C32.7311 27.3524 32.8568 27.0878 33.0638 26.8947L43.6616 17.5316H1.02128C0.750417 17.5316 0.490652 17.424 0.299125 17.2325C0.107598 17.041 0 16.7812 0 16.5103V15.4891C0 15.2182 0.107598 14.9584 0.299125 14.7669C0.490652 14.5754 0.750417 14.4678 1.02128 14.4678H42.8936L34.5191 3.90268C34.3409 3.68107 34.2525 3.40056 34.2714 3.1168C34.2903 2.83304 34.4152 2.56675 34.6213 2.37076L35.5731 1.48634C35.6717 1.39287 35.7887 1.32095 35.9166 1.27513C36.0445 1.22932 36.1806 1.21062 36.3161 1.22022C36.4516 1.22983 36.5837 1.26753 36.7038 1.33092C36.824 1.39432 36.9297 1.48203 37.0141 1.58847L47.2657 14.526C47.4759 14.5853 47.6612 14.7113 47.7936 14.885C47.926 15.0586 47.9985 15.2707 48 15.4891V16.5103C47.9955 16.7341 47.916 16.9499 47.7743 17.1231Z" fill="#007590"/>
</g>
</g>
<defs>
<clipPath id="clip0_1_747">
<rect width="48" height="32" fill="white"/>
</clipPath>
<clipPath id="clip1_1_747">
<rect width="48" height="29.617" fill="white" transform="translate(0 1.19141)"/>
</clipPath>
</defs>
</svg>
