<svg width="192" height="53" viewBox="0 0 192 53" fill="none" xmlns="http://www.w3.org/2000/svg">
<g clip-path="url(#clip0_1_629)">
<g clip-path="url(#clip1_1_629)">
<path d="M45.7018 52.7422C54.0942 52.7422 60.8976 45.9388 60.8976 37.5464C60.8976 29.154 54.0942 22.3506 45.7018 22.3506C37.3094 22.3506 30.506 29.154 30.506 37.5464C30.506 45.9388 37.3094 52.7422 45.7018 52.7422Z" fill="#D3F0F4"/>
<path fill-rule="evenodd" clip-rule="evenodd" d="M1.10157 16.7794L16.6394 1.11205C12.9869 2.27799 9.67152 4.31188 6.9771 7.03951C4.26603 9.76814 2.25087 13.1087 1.10157 16.7794ZM21.7868 0.0828721L0.0734403 22.035C-0.0334109 23.3239 -0.0376206 24.6192 0.060851 25.9088L25.6937 0.0645127C24.3931 -0.0363984 23.0864 -0.0302579 21.7868 0.0828721ZM32.257 1.52907C31.2843 1.16102 30.2885 0.857519 29.2759 0.62054L0.642582 29.6499C0.872989 30.6258 1.16398 31.5864 1.51387 32.526L32.257 1.52907ZM37.5056 4.31865C36.7346 3.77583 35.9319 3.27959 35.1016 2.83259L2.89817 35.57C3.31695 36.345 3.77821 37.0963 4.27984 37.8204L37.5056 4.31865ZM40.7196 7.03794C40.4223 6.73824 40.1193 6.44834 39.8105 6.16823L6.29466 40.3382C6.51707 40.5811 6.74315 40.8219 6.97658 41.0579C7.33013 41.4143 7.69207 41.7566 8.0624 42.085L41.7383 8.13059C41.4117 7.7592 41.0721 7.39534 40.7196 7.03794ZM45.0068 12.9187C44.5719 12.0799 44.0878 11.2675 43.5569 10.4858L10.6721 44.1098C11.3616 44.5712 12.0749 44.9959 12.8091 45.3823L45.0068 12.9187ZM47.1449 18.8462C46.9224 17.831 46.6347 16.8312 46.2835 15.8531L16.0981 46.8039C16.9465 47.0976 17.811 47.3428 18.6873 47.5383L47.1449 18.8462ZM47.6636 22.6083L22.8931 48.0838C24.0176 48.1285 25.1439 48.0935 26.2634 47.9789L47.585 26.4826C47.7139 25.1953 47.7402 23.8998 47.6636 22.6083ZM46.293 32.2207L32.461 46.4886C35.6514 45.2356 38.5365 43.3139 40.9224 40.8529C43.3082 38.3918 45.1395 35.4485 46.293 32.2207Z" fill="#20738F"/>
</g>
</g>
<defs>
<clipPath id="clip0_1_629">
<rect width="192" height="52.98" fill="white"/>
</clipPath>
<clipPath id="clip1_1_629">
<rect width="65.5693" height="52.98" fill="white"/>
</clipPath>
</defs>
</svg>
