<svg width="277" height="5" viewBox="0 0 277 5" fill="none" xmlns="http://www.w3.org/2000/svg">
<g clip-path="url(#clip0_1_257)">
<g clip-path="url(#clip1_1_257)">
<path fill-rule="evenodd" clip-rule="evenodd" d="M143.785 0.00333333C141.994 0.0216667 141.093 1.09667 140.37 1.965C139.647 2.83333 139.182 3.33333 138.226 3.33333C137.27 3.33333 136.812 2.83889 136.083 1.965C135.354 1.09111 134.444 0 132.668 0V1.66667C133.624 1.66667 134.083 2.16111 134.812 3.035C135.542 3.90889 136.45 5 138.226 5C140.002 5 140.911 3.91056 141.641 3.035C142.363 2.16667 142.822 1.67611 143.762 1.66667C143.746 1.66382 143.732 1.65508 143.722 1.64218C143.712 1.62928 143.707 1.61314 143.709 1.59696C143.71 1.58077 143.718 1.5657 143.73 1.55473C143.742 1.54376 143.757 1.53767 143.774 1.53767C143.79 1.53767 143.806 1.54376 143.818 1.55473C143.829 1.5657 143.837 1.58077 143.838 1.59696C143.84 1.61314 143.835 1.62928 143.825 1.64218C143.815 1.65508 143.801 1.66382 143.785 1.66667V0.00333333Z" fill="#00536F"/>
</g>
</g>
<defs>
<clipPath id="clip0_1_257">
<rect width="276.47" height="5" fill="white"/>
</clipPath>
<clipPath id="clip1_1_257">
<rect width="11.1111" height="5" fill="white" transform="translate(132.679)"/>
</clipPath>
</defs>
</svg>
