<svg width="40" height="40" viewBox="0 0 40 40" fill="none" xmlns="http://www.w3.org/2000/svg">
<g clip-path="url(#clip0_1_13)">
<path fill-rule="evenodd" clip-rule="evenodd" d="M16.312 13.052C16.5935 13.0544 16.8644 12.9449 17.0652 12.7477C17.2661 12.5504 17.3804 12.2815 17.383 12V10.34C17.383 10.056 17.2702 9.78354 17.0693 9.58269C16.8685 9.38184 16.596 9.269 16.312 9.269C16.028 9.269 15.7555 9.38184 15.5547 9.58269C15.3538 9.78354 15.241 10.056 15.241 10.34V12C15.2439 12.2814 15.3583 12.5502 15.559 12.7474C15.7598 12.9446 16.0306 13.0541 16.312 13.052ZM24.212 13.052C24.4928 13.0533 24.7627 12.9434 24.9627 12.7463C25.1626 12.5491 25.2764 12.2808 25.279 12V10.34C25.279 10.056 25.1662 9.78354 24.9653 9.58269C24.7645 9.38184 24.492 9.269 24.208 9.269C23.924 9.269 23.6515 9.38184 23.4507 9.58269C23.2498 9.78354 23.137 10.056 23.137 10.34V12C23.1399 12.2814 23.2543 12.5502 23.455 12.7474C23.6558 12.9446 23.9266 13.0541 24.208 13.052H24.212ZM27.922 10.788H26.222V12C26.2055 12.5224 25.9864 13.0178 25.6111 13.3815C25.2358 13.7452 24.7336 13.9486 24.211 13.9486C23.6884 13.9486 23.1862 13.7452 22.8109 13.3815C22.4356 13.0178 22.2165 12.5224 22.2 12V10.79H18.324V12C18.324 12.5336 18.112 13.0454 17.7347 13.4227C17.3574 13.8 16.8456 14.012 16.312 14.012C15.7784 14.012 15.2666 13.8 14.8893 13.4227C14.512 13.0454 14.3 12.5336 14.3 12V10.79H12.47C11.6788 10.7839 10.9175 11.0923 10.3536 11.6474C9.78968 12.2024 9.46934 12.9588 9.463 13.75V27.8C9.46934 28.5912 9.78968 29.3476 10.3536 29.9026C10.9175 30.4577 11.6788 30.7661 12.47 30.76H27.918C28.3099 30.7632 28.6985 30.6891 29.0618 30.5421C29.425 30.395 29.7557 30.1779 30.0351 29.903C30.3144 29.6281 30.5368 29.3009 30.6897 28.9401C30.8426 28.5793 30.9229 28.1919 30.926 27.8V13.748C30.9229 13.3561 30.8426 12.9687 30.6897 12.6079C30.5368 12.247 30.3144 11.9199 30.0351 11.645C29.7557 11.3701 29.425 11.153 29.0618 11.0059C28.6985 10.8589 28.3099 10.7848 27.918 10.788H27.922ZM29.462 27.8C29.4583 28.2061 29.2937 28.5943 29.0042 28.8792C28.7148 29.1641 28.3242 29.3227 27.918 29.32H12.471C12.0648 29.3227 11.6742 29.1641 11.3848 28.8792C11.0953 28.5943 10.9307 28.2061 10.927 27.8V15.619H29.462V27.8ZM19.45 25.33H16.74V28H19.45V25.33ZM19.45 21.197H16.74V23.864H19.45V21.2V21.197ZM15.25 25.33H12.541V28H15.25V25.33ZM15.25 21.197H12.541V23.864H15.25V21.2V21.197ZM27.85 17.064H25.14V19.73H27.85V17.064ZM23.65 17.064H20.94V19.73H23.65V17.064ZM24.2 21.584L23.4 20.968L21.932 22.826L21.061 22.14L20.423 22.924L22.1 24.246L24.2 21.584ZM27.847 21.196H25.137V23.863H27.847V21.2V21.196ZM20.94 28H23.65V25.33H20.94V28ZM19.45 17.063H16.74V19.73H19.45V17.063ZM19.868 0C23.7975 0 27.6388 1.16524 30.9061 3.34836C34.1733 5.53149 36.7199 8.63444 38.2236 12.2648C39.7274 15.8952 40.1208 19.89 39.3542 23.7441C38.5876 27.5981 36.6954 31.1382 33.9168 33.9168C31.1382 36.6954 27.5981 38.5876 23.7441 39.3542C19.89 40.1208 15.8952 39.7274 12.2648 38.2236C8.63444 36.7199 5.53149 34.1733 3.34836 30.9061C1.16524 27.6388 0 23.7975 0 19.868C0 14.5987 2.09323 9.54517 5.8192 5.8192C9.54517 2.09323 14.5987 0 19.868 0Z" fill="#2998D3"/>
</g>
<defs>
<clipPath id="clip0_1_13">
<rect width="39.73" height="39.73" fill="white" transform="scale(1.0068)"/>
</clipPath>
</defs>
</svg>
