<svg width="61" height="53" viewBox="0 0 61 53" fill="none" xmlns="http://www.w3.org/2000/svg">
<path fill-rule="evenodd" clip-rule="evenodd" d="M25.857 23.4647C27.0651 23.4647 28.246 23.8229 29.2505 24.4941C30.255 25.1652 31.038 26.1191 31.5003 27.2352C31.9627 28.3513 32.0838 29.5794 31.8482 30.7643C31.6126 31.9492 31.031 33.0376 30.1768 33.8919C29.3227 34.7463 28.2344 35.3282 27.0496 35.564C25.8648 35.7999 24.6366 35.6791 23.5204 35.217C22.4042 34.7549 21.4501 33.9722 20.7787 32.9679C20.1074 31.9635 19.7489 30.7827 19.7486 29.5746C19.7484 28.7723 19.9063 27.9778 20.2131 27.2365C20.52 26.4953 20.97 25.8217 21.5372 25.2543C22.1044 24.687 22.7779 24.2369 23.5191 23.9298C24.2603 23.6227 25.0547 23.4647 25.857 23.4647Z" fill="#EEE73B"/>
<path d="M46.8641 24.8129C53.0219 24.8129 58.0138 19.8211 58.0138 13.6633C58.0138 7.50549 53.0219 2.51362 46.8641 2.51362C40.7063 2.51362 35.7145 7.50549 35.7145 13.6633C35.7145 19.8211 40.7063 24.8129 46.8641 24.8129Z" stroke="#4CAED4" stroke-width="3.85309"/>
</svg>
