<svg width="24" height="52" viewBox="0 0 24 52" fill="none" xmlns="http://www.w3.org/2000/svg">
<g clip-path="url(#clip0_1_781)">
<g clip-path="url(#clip1_1_781)">
<path fill-rule="evenodd" clip-rule="evenodd" d="M16.4273 26.4375L9.19708 32.4809V20.3973L16.4273 26.4375ZM11.9573 37.7097C14.1855 37.7095 16.3636 37.0486 18.2161 35.8104C20.0686 34.5723 21.5124 32.8127 22.3648 30.754C23.2172 28.6954 23.44 26.4301 23.005 24.2448C22.57 22.0595 21.4968 20.0523 19.921 18.477C18.3452 16.9017 16.3377 15.829 14.1522 15.3947C11.9668 14.9603 9.70166 15.1838 7.64325 16.0369C5.58483 16.8899 3.82561 18.3342 2.58805 20.1871C1.35049 22.04 0.690178 24.2182 0.69062 26.4464C0.689002 27.9263 0.979344 29.3919 1.54502 30.7594C2.11069 32.1269 2.94058 33.3693 3.98716 34.4156C5.03373 35.4618 6.27643 36.2914 7.64408 36.8566C9.01173 37.4219 10.4775 37.7118 11.9573 37.7097Z" fill="white"/>
</g>
</g>
<defs>
<clipPath id="clip0_1_781">
<rect width="23.03" height="51.03" fill="white" transform="scale(1.019)"/>
</clipPath>
<clipPath id="clip1_1_781">
<rect width="23.03" height="23.03" fill="white" transform="translate(0 14.266) scale(1.019)"/>
</clipPath>
</defs>
</svg>
