<svg width="39" height="33" viewBox="0 0 39 33" fill="none" xmlns="http://www.w3.org/2000/svg">
<g clip-path="url(#clip0_1_936)">
<g clip-path="url(#clip1_1_936)">
<g clip-path="url(#clip2_1_936)">
<path fill-rule="evenodd" clip-rule="evenodd" d="M4.86201 6.27308C4.8624 5.82383 4.72955 5.38456 4.48025 5.01083C4.23095 4.63711 3.8764 4.34572 3.46147 4.17352C3.04653 4.00133 2.58985 3.95607 2.14918 4.04347C1.70852 4.13087 1.30368 4.347 0.985876 4.66453C0.668071 4.98206 0.451581 5.38671 0.363792 5.82729C0.276002 6.26788 0.320859 6.7246 0.492686 7.13969C0.664514 7.55478 0.955593 7.90958 1.3291 8.15921C1.70261 8.40883 2.14176 8.54208 2.59101 8.54208C2.88911 8.54221 3.18432 8.48362 3.45977 8.36967C3.73523 8.25571 3.98555 8.08861 4.19643 7.87792C4.40731 7.66722 4.57463 7.41705 4.68883 7.14169C4.80303 6.86633 4.86188 6.57118 4.86201 6.27308ZM36.056 4.00508C35.6076 4.00567 35.1694 4.13919 34.7968 4.38876C34.4242 4.63833 34.134 4.99275 33.9628 5.40723C33.7916 5.8217 33.7471 6.27763 33.835 6.71738C33.9228 7.15713 34.139 7.56097 34.4563 7.87785C34.7737 8.19474 35.1778 8.41045 35.6176 8.49771C36.0575 8.58498 36.5134 8.5399 36.9276 8.36815C37.3419 8.1964 37.6959 7.9057 37.945 7.5328C38.1941 7.15989 38.327 6.72152 38.327 6.27308C38.3265 5.67121 38.0869 5.09419 37.6611 4.66888C37.2352 4.24358 36.6579 4.00481 36.056 4.00508ZM19.324 4.74108C19.7725 4.74048 20.2107 4.60694 20.5833 4.35732C20.9559 4.10771 21.2462 3.75323 21.4173 3.3387C21.5885 2.92416 21.6329 2.46819 21.545 2.02841C21.4571 1.58863 21.2407 1.18479 20.9233 0.867948C20.6059 0.551102 20.2017 0.335473 19.7618 0.248318C19.3218 0.161162 18.8659 0.206394 18.4517 0.378294C18.0375 0.550195 17.6835 0.841047 17.4345 1.21408C17.1856 1.58712 17.0528 2.02559 17.053 2.47408C17.0533 2.77205 17.1122 3.06705 17.2265 3.34223C17.3408 3.61742 17.5081 3.86741 17.719 4.07792C17.9299 4.28843 18.1802 4.45534 18.4555 4.56913C18.7309 4.68291 19.026 4.74134 19.324 4.74108ZM19.324 6.77108L12.115 16.2821L4.02501 10.5721L6.01001 25.8821H32.638L34.623 10.5711L26.533 16.2811L19.324 6.77108ZM6.93201 33.0001H31.716L32.331 28.2551H6.31701L6.93201 33.0001Z" fill="#CAAF19"/>
</g>
</g>
</g>
<defs>
<clipPath id="clip0_1_936">
<rect width="39" height="33" fill="white"/>
</clipPath>
<clipPath id="clip1_1_936">
<rect width="39" height="33" fill="white"/>
</clipPath>
<clipPath id="clip2_1_936">
<rect width="39" height="33" fill="white"/>
</clipPath>
</defs>
</svg>
