<svg width="800" height="6" viewBox="0 0 800 6" fill="none" xmlns="http://www.w3.org/2000/svg">
<g clip-path="url(#clip0_1_223)">
<g clip-path="url(#clip1_1_223)">
<path fill-rule="evenodd" clip-rule="evenodd" d="M36.165 3.01401C36.165 2.21499 36.4823 1.44867 37.0471 0.883498C37.6119 0.31832 38.378 0.000540816 39.177 1.06128e-05C39.976 0.000540816 40.7421 0.31832 41.3069 0.883498C41.8717 1.44867 42.189 2.21499 42.189 3.01401C42.1887 3.81285 41.8713 4.57892 41.3066 5.14388C40.7418 5.70884 39.9758 6.02648 39.177 6.02701C38.3782 6.02648 37.6122 5.70884 37.0474 5.14388C36.4827 4.57892 36.1653 3.81285 36.165 3.01401ZM24.106 3.01401C24.1063 2.61744 24.1847 2.22481 24.3369 1.8586C24.4891 1.49239 24.712 1.15979 24.9929 0.879837C25.2738 0.599882 25.6071 0.378071 25.9738 0.227099C26.3405 0.0761271 26.7334 -0.00104139 27.13 1.06128e-05C27.5251 6.31006e-06 27.9164 0.0780651 28.2813 0.229704C28.6462 0.381343 28.9775 0.603574 29.2563 0.883634C29.535 1.16369 29.7557 1.49607 29.9057 1.86166C30.0556 2.22725 30.1318 2.61887 30.13 3.01401C30.1317 3.40907 30.0554 3.80057 29.9054 4.16605C29.7554 4.53153 29.5347 4.86379 29.2559 5.14374C28.9772 5.42369 28.6459 5.64584 28.2811 5.79741C27.9162 5.94899 27.5251 6.02701 27.13 6.02701C26.7335 6.02806 26.3407 5.95093 25.9741 5.80002C25.6074 5.64911 25.2741 5.42739 24.9933 5.14754C24.7124 4.86769 24.4894 4.53521 24.3372 4.16911C24.185 3.80302 24.1064 3.4105 24.106 3.01401ZM12.059 3.01401C12.0589 2.61834 12.1367 2.22651 12.288 1.86091C12.4393 1.4953 12.6611 1.16308 12.9408 0.883205C13.2205 0.603329 13.5525 0.381283 13.9181 0.229744C14.2836 0.0782055 14.6753 0.000141913 15.071 1.06128e-05C15.87 0.000540816 16.6361 0.31832 17.2009 0.883498C17.7657 1.44867 18.083 2.21499 18.083 3.01401C18.0827 3.81285 17.7653 4.57892 17.2006 5.14388C16.6358 5.70884 15.8698 6.02648 15.071 6.02701C14.2722 6.02648 13.5062 5.70884 12.9414 5.14388C12.3767 4.57892 12.0593 3.81285 12.059 3.01401ZM0 3.01401C-3.95719e-07 2.21517 0.317133 1.449 0.881719 0.883851C1.44631 0.318702 2.21216 0.000805745 3.011 1.06128e-05C3.40693 -0.000781077 3.79912 0.0766526 4.16504 0.227865C4.53096 0.379076 4.86341 0.601087 5.14328 0.881147C5.42315 1.16121 5.64494 1.4938 5.79591 1.85982C5.94688 2.22584 6.02405 2.61808 6.023 3.01401C6.02392 3.40986 5.94665 3.80199 5.79562 4.1679C5.6446 4.5338 5.42278 4.86627 5.14292 5.14623C4.86306 5.42618 4.53066 5.6481 4.16481 5.79925C3.79895 5.9504 3.40685 6.0278 3.011 6.02701C2.21233 6.02622 1.44663 5.70846 0.882073 5.14352C0.317515 4.57859 0.000264591 3.81268 0 3.01401Z" fill="#024767"/>
</g>
</g>
<defs>
<clipPath id="clip0_1_223">
<rect width="800" height="6" fill="white"/>
</clipPath>
<clipPath id="clip1_1_223">
<rect width="24" height="6" fill="white"/>
</clipPath>
</defs>
</svg>
