<svg width="256" height="60" viewBox="0 0 256 60" fill="none" xmlns="http://www.w3.org/2000/svg">
<g clip-path="url(#clip0_1_381)">
<g clip-path="url(#clip1_1_381)">
<g clip-path="url(#clip2_1_381)">
<path d="M52.2377 30.6391C50.4217 30.6391 48.7183 31.1285 47.2499 31.9754V25.5337C47.2499 24.1485 46.1289 23.0276 44.7486 23.0276C43.3683 23.0276 42.2473 24.1485 42.2473 25.5337V40.2427C42.2424 40.3749 42.2376 40.5071 42.2376 40.6392C42.2376 46.1606 46.7114 50.6345 52.2377 50.6345C57.7591 50.6345 62.233 46.1606 62.233 40.6392C62.2379 35.1129 57.7591 30.6391 52.2377 30.6391ZM52.2377 45.632C49.4966 45.632 47.2694 43.4244 47.2401 40.6833C47.245 40.6343 47.2499 40.5854 47.2499 40.5364V40.4336C47.3527 37.7659 49.5455 35.6318 52.2377 35.6318C54.9984 35.6318 57.2353 37.8736 57.2353 40.6294C57.2402 43.395 54.9984 45.632 52.2377 45.632ZM71.9737 24.1632C71.9737 25.1666 71.6213 26.0183 70.9164 26.7232C70.2116 27.4329 69.3598 27.7805 68.3564 27.7805C67.353 27.7805 66.4964 27.4281 65.7964 26.7232C65.0915 26.0183 64.7391 25.1666 64.7391 24.1632C64.7391 23.1598 65.0915 22.3081 65.7964 21.5983C66.5013 20.8934 67.353 20.541 68.3564 20.541C69.3598 20.541 70.2116 20.8934 70.9164 21.5983C71.6213 22.3081 71.9737 23.1646 71.9737 24.1632ZM68.4886 50.6345C67.1082 50.6345 65.9873 49.5136 65.9873 48.1283V33.1207C65.9873 31.7355 67.1082 30.6146 68.4886 30.6146C69.8689 30.6146 70.9898 31.7355 70.9898 33.1207V48.1283C70.9849 49.5136 69.8689 50.6345 68.4886 50.6345ZM82.2333 24.1632C82.2333 25.1666 81.8808 26.0183 81.176 26.7232C80.4711 27.4329 79.6194 27.7805 78.616 27.7805C77.6125 27.7805 76.756 27.4281 76.056 26.7232C75.3511 26.0183 74.9987 25.1666 74.9987 24.1632C74.9987 23.1598 75.3511 22.3081 76.056 21.5983C76.7608 20.8934 77.6125 20.541 78.616 20.541C79.6194 20.541 80.4711 20.8934 81.176 21.5983C81.8808 22.3081 82.2333 23.1646 82.2333 24.1632ZM78.4838 50.6345C77.1035 50.6345 75.9826 49.5136 75.9826 48.1283V33.1207C75.9826 31.7355 77.1035 30.6146 78.4838 30.6146C79.8642 30.6146 80.9851 31.7355 80.9851 33.1207V48.1283C80.9851 49.5136 79.8642 50.6345 78.4838 50.6345ZM109.728 38.1086V48.1234C109.728 49.5087 108.607 50.6296 107.226 50.6296C105.846 50.6296 104.725 49.5087 104.725 48.1234V38.1086C104.725 36.7282 103.604 35.6073 102.224 35.6073C100.843 35.6073 99.7274 36.7233 99.7225 38.1037V38.1086V48.1234C99.7225 49.5087 98.6016 50.6296 97.2213 50.6296C95.8409 50.6296 94.72 49.5087 94.72 48.1234V38.1086C94.72 36.7282 93.5991 35.6073 92.2187 35.6073C90.8384 35.6073 89.7224 36.7233 89.7175 38.1037V38.1086V48.1234C89.7175 49.5087 88.5966 50.6296 87.2162 50.6296C85.8359 50.6296 84.715 49.5087 84.715 48.1234V38.1086C84.715 38.0205 84.7199 37.9373 84.7296 37.8492C84.8667 33.8305 88.1609 30.6097 92.2138 30.6097C94.1375 30.6097 95.885 31.339 97.2115 32.5285C98.538 31.339 100.285 30.6097 102.209 30.6097C106.262 30.6097 109.556 33.8256 109.693 37.8492C109.723 37.9324 109.728 38.0205 109.728 38.1086ZM131.108 30.6097C130.041 30.6097 129.131 31.2803 128.773 32.225C127.217 31.2215 125.362 30.6342 123.369 30.6342C117.848 30.6342 113.369 35.1129 113.369 40.6343C113.369 46.1557 117.843 50.6296 123.369 50.6296C125.367 50.6296 127.222 50.0422 128.783 49.0388C129.145 49.9688 130.051 50.6296 131.108 50.6296C132.489 50.6296 133.609 49.5087 133.609 48.1234V33.1207C133.609 31.7355 132.489 30.6097 131.108 30.6097ZM123.369 45.6368C120.609 45.6368 118.372 43.3999 118.372 40.6392C118.372 37.8785 120.609 35.6416 123.369 35.6416C126.13 35.6416 128.367 37.8834 128.367 40.6392C128.372 43.3999 126.13 45.6368 123.369 45.6368Z" fill="white"/>
<path d="M191.628 29.4399C185.779 29.4399 181.036 34.183 181.036 40.0324C181.036 45.8817 185.779 50.6199 191.628 50.6199C197.477 50.6199 202.22 45.8817 202.22 40.0324C202.22 34.183 197.477 29.4399 191.628 29.4399ZM191.628 45.3237C188.701 45.3237 186.332 42.9546 186.332 40.0275C186.332 37.1053 188.706 34.7313 191.628 34.7313C194.555 34.7313 196.924 37.1053 196.924 40.0275C196.924 42.9595 194.555 45.3237 191.628 45.3237Z" fill="white"/>
<path d="M178.387 40.0226C178.387 34.1733 173.644 29.4351 167.795 29.4351C161.946 29.4351 157.203 34.1733 157.203 40.0226C157.203 40.1645 157.207 40.3016 157.212 40.4435V56.0238C157.212 57.4923 158.397 58.6817 159.86 58.6817C161.324 58.6817 162.509 57.4923 162.509 56.0238V49.2004C164.065 50.1011 165.866 50.615 167.795 50.615C173.644 50.6199 178.387 45.8768 178.387 40.0226ZM173.091 40.0275C173.091 42.9497 170.722 45.3237 167.795 45.3237C164.941 45.3237 162.621 43.0623 162.509 40.238V40.1303C162.509 40.0764 162.504 40.0275 162.504 39.9736C162.533 37.071 164.892 34.7313 167.795 34.7313C170.722 34.7313 173.091 37.1004 173.091 40.0275Z" fill="white"/>
<path d="M218.652 33.0625C219.171 33.5813 219.431 34.2079 219.431 34.9323C219.431 35.6665 219.171 36.2882 218.652 36.807C218.134 37.3259 217.507 37.5853 216.778 37.5853C216.048 37.5853 215.427 37.3259 214.908 36.807C214.389 36.2882 214.13 35.6665 214.13 34.9372C214.13 34.2078 214.389 33.5813 214.908 33.0625C215.427 32.5436 216.048 32.2842 216.778 32.2842C217.512 32.2842 218.134 32.5436 218.652 33.0625Z" fill="white"/>
<path d="M210.39 38.6767C210.39 37.2132 211.574 36.0286 213.038 36.0286V30.7324C208.652 30.7324 205.094 34.291 205.094 38.6767H210.39Z" fill="white"/>
<path d="M211.163 36.8069C212.196 35.7741 213.875 35.7741 214.908 36.8069L218.652 33.0624C215.549 29.959 210.522 29.959 207.419 33.0624L211.163 36.8069Z" fill="white"/>
<path d="M207.742 50.62C206.278 50.62 205.094 49.4305 205.094 47.9621V32.0637C205.094 30.5952 206.278 29.4058 207.742 29.4058C209.205 29.4058 210.39 30.5952 210.39 32.0637V47.967C210.39 49.4354 209.205 50.62 207.742 50.62Z" fill="white"/>
<path d="M234.864 46.4349C234.864 45.7007 234.605 45.0742 234.091 44.5602C233.572 44.0463 232.95 43.7868 232.216 43.7868C231.482 43.7868 230.855 44.0463 230.341 44.5602C229.539 45.363 228.349 45.5392 227.375 45.0987V38.4906H231.369C232.838 38.4906 234.027 37.3061 234.027 35.8425C234.027 34.3839 232.838 33.1944 231.369 33.1944H227.375V31.8483C227.375 30.3799 226.19 29.1904 224.727 29.1904C223.263 29.1904 222.079 30.3799 222.079 31.8483V46.4252C222.079 47.1594 222.338 47.781 222.852 48.2999C222.921 48.3684 222.994 48.432 223.068 48.4908C226.097 51.3102 230.787 51.3249 233.826 48.5299C233.919 48.4565 234.007 48.3831 234.091 48.2999C234.61 47.7908 234.864 47.1692 234.864 46.4349Z" fill="white"/>
<path d="M148.358 29.5869C149.381 28.5639 151.025 28.5541 152.058 29.5477C152.073 29.5624 152.083 29.5771 152.097 29.5918C152.611 30.1057 153.238 30.3652 153.972 30.3652C154.706 30.3652 155.328 30.1057 155.847 29.5918C156.361 29.0778 156.62 28.4513 156.62 27.7171C156.62 26.9828 156.361 26.3612 155.847 25.8423C155.778 25.7738 155.71 25.7151 155.641 25.6563C152.528 22.7488 147.648 22.8075 144.613 25.8423C141.573 28.882 141.52 33.7622 144.432 36.8753C144.491 36.9438 144.549 37.0124 144.613 37.076L148.343 40.8108C148.348 40.8108 148.348 40.8156 148.353 40.8156C149.381 41.8485 149.376 43.5225 148.343 44.5504C147.325 45.5734 145.675 45.5832 144.642 44.5896C144.628 44.5749 144.618 44.5602 144.603 44.5455C144.089 44.0316 143.463 43.7721 142.729 43.7721C141.994 43.7721 141.368 44.0316 140.854 44.5455C140.34 45.0644 140.08 45.6909 140.08 46.4202C140.08 47.1545 140.34 47.781 140.854 48.295C140.922 48.3635 140.996 48.4271 141.069 48.4859C144.187 51.3885 149.058 51.3298 152.087 48.295C155.127 45.2553 155.181 40.38 152.274 37.262C152.215 37.1935 152.156 37.1249 152.087 37.0613L148.358 33.3265C148.353 33.3217 148.353 33.3217 148.348 33.3168C147.325 32.2888 147.33 30.6197 148.358 29.5869Z" fill="white"/>
<path d="M245.594 29.5869C246.617 28.5639 248.261 28.5541 249.294 29.5477C249.309 29.5624 249.319 29.5771 249.333 29.5918C249.847 30.1057 250.474 30.3652 251.208 30.3652C251.942 30.3652 252.569 30.1057 253.083 29.5918C253.597 29.0778 253.856 28.4513 253.856 27.7171C253.856 26.9828 253.597 26.3612 253.083 25.8423C253.014 25.7738 252.946 25.7151 252.877 25.6563C249.759 22.7488 244.884 22.8075 241.849 25.8423C238.809 28.882 238.755 33.7622 241.668 36.8753C241.727 36.9438 241.785 37.0124 241.849 37.076L245.584 40.8108C245.589 40.8108 245.589 40.8156 245.594 40.8156C246.617 41.8485 246.617 43.5225 245.584 44.5504C244.561 45.5734 242.916 45.5832 241.878 44.5896C241.864 44.5749 241.854 44.5602 241.839 44.5455C241.325 44.0316 240.699 43.7721 239.964 43.7721C239.23 43.7721 238.604 44.0316 238.09 44.5455C237.576 45.0644 237.316 45.6909 237.316 46.4202C237.316 47.1545 237.576 47.781 238.09 48.295C238.158 48.3635 238.232 48.4271 238.305 48.4859C241.423 51.3885 246.294 51.3298 249.323 48.295C252.363 45.2553 252.417 40.38 249.509 37.262C249.451 37.1935 249.392 37.1249 249.328 37.0613L245.594 33.3265C245.589 33.3217 245.589 33.3217 245.584 33.3168C244.561 32.2888 244.561 30.6197 245.594 29.5869Z" fill="white"/>
<path d="M17.2984 21.2118C14.6209 21.2118 12.1147 21.9314 9.9512 23.1747V19.3714C9.9512 17.3302 8.30654 15.6807 6.27029 15.6807C4.23893 15.6807 2.58937 17.3302 2.58937 19.3714V35.3481C2.57958 35.5439 2.57468 35.7348 2.57468 35.9306C2.57468 44.0609 9.16314 50.6445 17.2935 50.6445C25.4238 50.6445 32.0122 44.056 32.0122 35.9306C32.0122 27.8052 25.4238 21.2118 17.2984 21.2118ZM17.2984 43.2875C13.2601 43.2875 9.98547 40.0374 9.94141 36.004C9.94631 35.9306 9.9512 35.8621 9.9512 35.7886V35.6369C10.1078 31.7112 13.3286 28.5688 17.2984 28.5688C21.3611 28.5688 24.6553 31.8679 24.6553 35.9257C24.6553 39.9982 21.3611 43.2875 17.2984 43.2875ZM11.4588 6.30215C11.4588 7.78039 10.94 9.03836 9.90226 10.0712C8.86455 11.1138 7.60658 11.6277 6.13323 11.6277C4.65499 11.6277 3.39702 11.1089 2.36421 10.0712C1.3265 9.03347 0.807648 7.78039 0.807648 6.30215C0.807648 4.8288 1.3265 3.56593 2.36421 2.52823C3.39212 1.49542 4.6501 0.976562 6.12834 0.976562C7.60168 0.976562 8.85966 1.49542 9.89736 2.53312C10.94 3.57083 11.4588 4.8288 11.4588 6.30215Z" fill="white"/>
</g>
</g>
</g>
<defs>
<clipPath id="clip0_1_381">
<rect width="256" height="59.36" fill="white"/>
</clipPath>
<clipPath id="clip1_1_381">
<rect width="256" height="59.36" fill="white"/>
</clipPath>
<clipPath id="clip2_1_381">
<rect width="256" height="59.3646" fill="white" transform="translate(0 -0.00244141)"/>
</clipPath>
</defs>
</svg>
