<svg width="379" height="56" viewBox="0 0 379 56" fill="none" xmlns="http://www.w3.org/2000/svg">
<g clip-path="url(#clip0_1_331)">
<g clip-path="url(#clip1_1_331)">
<path d="M47.6416 27.5542C46.2383 27.5542 44.8522 27.8596 43.5862 28.4463V23.3925C43.5862 21.8417 42.327 20.5791 40.7831 20.5791C39.2357 20.5791 37.9766 21.8417 37.9766 23.3925V36.8487C37.9731 36.9756 37.9663 37.1026 37.9663 37.2295C37.9663 42.5646 42.3064 46.9014 47.6416 46.9014C52.9767 46.9014 57.3168 42.5612 57.3168 37.2295C57.3134 31.8944 52.9732 27.5542 47.6416 27.5542ZM43.5827 37.0683C43.6685 34.8793 45.4492 33.1638 47.6381 33.1638C49.8785 33.1638 51.7038 34.9857 51.7038 37.2295C51.7038 39.4699 49.882 41.2952 47.6381 41.2952C45.4217 41.2952 43.5965 39.4905 43.5759 37.2775C43.5793 37.2329 43.5827 37.1883 43.5827 37.1437V37.0683Z" fill="white"/>
<path d="M119.897 27.5298C118.947 27.5298 118.065 28.0238 117.554 28.7992C116.106 27.9827 114.48 27.5538 112.809 27.5538C107.474 27.5538 103.134 31.894 103.134 37.2291C103.134 42.5608 107.474 46.9009 112.809 46.9009C114.483 46.9009 116.116 46.4686 117.564 45.6521C118.076 46.4275 118.94 46.9009 119.897 46.9009C121.445 46.9009 122.7 45.6384 122.7 44.0876V30.3432C122.704 28.7924 121.445 27.5298 119.897 27.5298ZM116.875 37.2291C116.875 39.4695 115.053 41.2948 112.809 41.2948C110.569 41.2948 108.743 39.4695 108.743 37.2291C108.743 34.9887 110.569 33.1634 112.809 33.1634C115.049 33.1634 116.875 34.9887 116.875 37.2291Z" fill="white"/>
<path d="M93.4413 27.5298C91.7739 27.5298 90.1648 28.0959 88.861 29.132C87.5573 28.0959 85.9481 27.5298 84.2807 27.5298C80.2871 27.5298 77.0551 30.652 76.9076 34.6421C76.9007 34.7314 76.8939 34.8206 76.8939 34.9132V44.091C76.8939 45.6418 78.153 46.9044 79.7004 46.9044C81.2477 46.9044 82.5035 45.6418 82.5035 44.091V34.9132V34.8857C82.5172 33.9216 83.3097 33.1394 84.2773 33.1394C85.2551 33.1394 86.0511 33.9354 86.0511 34.9166V44.091C86.0511 45.6418 87.3102 46.9044 88.8576 46.9044C90.4049 46.9044 91.6607 45.6418 91.6607 44.091V34.896C91.671 33.9251 92.4635 33.1394 93.4345 33.1394C94.4123 33.1394 95.2083 33.9354 95.2083 34.9132V44.091C95.2083 45.6418 96.4674 46.9044 98.0148 46.9044C99.5622 46.9044 100.818 45.6418 100.818 44.091V34.9132C100.818 34.8137 100.811 34.7176 100.804 34.6559C100.674 30.6622 97.435 27.5298 93.4413 27.5298Z" fill="white"/>
<path d="M62.525 27.5298C60.9777 27.5298 59.7185 28.7924 59.7185 30.3432V44.091C59.7185 45.6418 60.9777 46.9044 62.525 46.9044C64.0724 46.9044 65.3281 45.6418 65.3281 44.091V30.3432C65.3281 28.7924 64.0724 27.5298 62.525 27.5298Z" fill="white"/>
<path d="M71.6857 27.5298C70.1383 27.5298 68.8791 28.7924 68.8791 30.3432V44.091C68.8791 45.6418 70.1383 46.9044 71.6857 46.9044C73.233 46.9044 74.4888 45.6418 74.4888 44.091V30.3432C74.4888 28.7924 73.2296 27.5298 71.6857 27.5298Z" fill="white"/>
<path d="M71.8023 18.3076C70.7456 18.3076 69.833 18.685 69.0919 19.4261C68.3508 20.1706 67.9734 21.0833 67.9734 22.1366C67.9734 23.1933 68.3508 24.1059 69.0919 24.847C69.833 25.5915 70.7456 25.9689 71.8023 25.9689C72.8591 25.9689 73.7717 25.5915 74.5128 24.847C75.2573 24.1059 75.6347 23.1933 75.6347 22.1366C75.6347 21.0798 75.2573 20.1672 74.5128 19.4227C73.7682 18.685 72.8591 18.3076 71.8023 18.3076Z" fill="white"/>
<path d="M62.4049 18.3076C61.3482 18.3076 60.4356 18.685 59.6945 19.4261C58.9534 20.1706 58.576 21.0833 58.576 22.1366C58.576 23.1933 58.9534 24.1059 59.6945 24.847C60.4356 25.5915 61.3482 25.9689 62.4049 25.9689C63.4617 25.9689 64.3743 25.5915 65.1154 24.847C65.8599 24.1059 66.2373 23.1933 66.2373 22.1366C66.2373 21.0798 65.8599 20.1672 65.1154 19.4227C64.3709 18.685 63.4617 18.3076 62.4049 18.3076Z" fill="white"/>
<path d="M253.567 22.6136C253.55 22.5793 253.533 22.5484 253.516 22.5176L253.499 22.4833C253.478 22.4455 253.458 22.4078 253.437 22.3735C253.423 22.3494 253.409 22.3289 253.389 22.298C253.351 22.2431 253.317 22.1848 253.279 22.1367L253.241 22.0921C253.193 22.0304 253.145 21.972 253.073 21.8966C253.015 21.8348 252.953 21.773 252.912 21.7387L252.885 21.7147C252.686 21.5363 252.466 21.3888 252.229 21.279C251.907 21.1246 251.56 21.0354 251.207 21.0114L251.159 21.0079C251.121 21.0045 251.083 21.0045 251.046 21.0079H250.991C250.953 21.0079 250.915 21.0079 250.877 21.0079L250.836 21.0114C250.476 21.0354 250.129 21.1246 249.807 21.279C249.577 21.3888 249.361 21.5329 249.165 21.7044L249.107 21.7559C249.059 21.8005 249.008 21.852 248.946 21.9171C248.894 21.9755 248.843 22.0338 248.795 22.0956L248.764 22.1367C248.723 22.1916 248.688 22.2465 248.644 22.3117C248.63 22.3323 248.613 22.3563 248.603 22.3769C248.582 22.4112 248.565 22.4455 248.548 22.4798L248.52 22.5279C248.503 22.5553 248.489 22.5862 248.472 22.6205L239.044 42.8803C238.375 44.2835 238.969 45.9716 240.368 46.6406C241.768 47.3096 243.456 46.7092 244.129 45.2991L251.018 30.4911L257.911 45.3025C258.395 46.3181 259.407 46.9116 260.464 46.9116C260.868 46.9116 261.28 46.8224 261.668 46.6372C263.068 45.9681 263.665 44.2835 262.996 42.8803L253.567 22.6136Z" fill="white"/>
<path d="M251.018 39.1538C249.961 39.1538 249.052 39.5312 248.308 40.2723C247.563 41.0168 247.189 41.9294 247.189 42.9827C247.189 44.0395 247.567 44.9521 248.308 45.6932C249.049 46.4377 249.961 46.8151 251.018 46.8151C252.075 46.8151 252.987 46.4377 253.729 45.6932C254.473 44.9521 254.85 44.0395 254.85 42.9827C254.85 41.926 254.473 41.0134 253.729 40.2689C252.984 39.5278 252.075 39.1538 251.018 39.1538Z" fill="white"/>
<path d="M318.817 27.54C317.867 27.54 316.985 28.0341 316.474 28.8095C315.026 27.9929 313.4 27.5641 311.729 27.5641C306.394 27.5641 302.053 31.9042 302.053 37.2393C302.053 42.571 306.394 46.9112 311.729 46.9112C313.403 46.9112 315.036 46.4789 316.484 45.6623C316.995 46.4377 317.86 46.9112 318.817 46.9112C320.364 46.9112 321.62 45.6486 321.62 44.0978V30.35C321.62 28.7992 320.364 27.54 318.817 27.54ZM315.791 37.2359C315.791 39.4763 313.969 41.3016 311.725 41.3016C309.485 41.3016 307.66 39.4763 307.66 37.2359C307.66 34.9955 309.485 33.1702 311.725 33.1702C313.969 33.1737 315.791 34.9955 315.791 37.2359Z" fill="white"/>
<path d="M300.091 29.0809C298.688 28.4256 297.017 29.0398 296.362 30.4465L293.095 37.4525L289.829 30.4465C289.174 29.0398 287.499 28.4291 286.1 29.0809C285.42 29.3966 284.906 29.9593 284.648 30.666C284.394 31.3694 284.429 32.1345 284.744 32.8138L290.477 45.1069C290.738 45.7862 291.246 46.3318 291.908 46.6405C292.217 46.7846 292.55 46.8704 292.9 46.8944L292.951 46.8979C292.992 46.9013 293.034 46.9013 293.095 46.9013H293.112C293.15 46.9013 293.202 46.9013 293.243 46.8979L293.298 46.8944C293.644 46.8704 293.977 46.7846 294.286 46.6405C294.945 46.3318 295.452 45.7897 295.713 45.1069L301.446 32.8138C302.102 31.4105 301.494 29.7362 300.091 29.0809Z" fill="white"/>
<path d="M331.278 28.4184C330.335 28.4184 329.419 28.5796 328.544 28.8953C328.05 28.0684 327.137 27.54 326.135 27.54C324.595 27.54 323.339 28.7683 323.339 30.2814V44.1733C323.339 45.6863 324.591 46.9146 326.135 46.9146C327.679 46.9146 328.928 45.6863 328.928 44.1733V36.2306C328.928 34.9029 329.961 33.8633 331.278 33.8633C332.596 33.8633 333.632 34.9029 333.632 36.2306V44.1733C333.632 45.6863 334.884 46.9146 336.428 46.9146C337.972 46.9146 339.221 45.6863 339.221 44.1733V36.066C339.221 36.0008 339.218 35.939 339.211 35.8807C339.022 31.6949 335.536 28.4184 331.278 28.4184Z" fill="white"/>
<path d="M350.639 33.2905C351.607 33.2905 352.537 33.6438 353.26 34.2854C353.827 34.7863 354.557 35.0368 355.305 34.9956C356.06 34.951 356.753 34.6148 357.254 34.0521C357.755 33.486 358.009 32.7587 357.964 32.0073C357.92 31.2525 357.583 30.5594 357.021 30.0585C355.261 28.494 352.996 27.6328 350.639 27.6328C345.342 27.6328 341.029 31.9421 341.029 37.2429C341.029 42.5403 345.338 46.8496 350.639 46.8496C352.996 46.8496 355.261 45.9884 357.021 44.4239C358.187 43.3877 358.294 41.5934 357.258 40.4268C356.218 39.2603 354.427 39.1539 353.26 40.1935C352.54 40.8351 351.607 41.1885 350.639 41.1885C348.464 41.1885 346.69 39.4181 346.69 37.2429C346.694 35.0608 348.464 33.2905 350.639 33.2905Z" fill="white"/>
<path d="M378.207 36.0488C377.699 31.0396 373.815 27.4028 368.971 27.4028C363.766 27.4028 359.687 31.6332 359.687 37.0301C359.687 42.4064 363.749 46.6368 368.902 46.6573L368.971 46.6608H369.009C371.616 46.647 374.052 45.6075 375.867 43.7342C376.378 43.2092 376.653 42.5127 376.639 41.782C376.625 41.0512 376.33 40.365 375.805 39.8538C375.315 39.3769 374.673 39.1058 373.994 39.0818H375.476C375.524 39.0818 375.572 39.0784 375.637 39.0681L375.596 38.5569L375.654 39.0681C375.685 39.0681 375.719 39.0646 375.757 39.0612C375.788 39.0578 375.819 39.0543 375.853 39.0475L375.768 38.5397L375.912 39.0372C377.346 38.8073 378.354 37.4933 378.207 36.0488ZM372.083 34.6181H365.849C366.535 33.5374 367.674 32.8924 368.974 32.8924C370.281 32.8924 371.4 33.5237 372.083 34.6181ZM371.928 39.9121C371.143 40.7218 370.093 41.1678 368.967 41.1712C367.53 41.1678 366.288 40.3684 365.646 39.0818H373.805C373.088 39.1024 372.426 39.3974 371.928 39.9121Z" fill="white"/>
<path d="M282.507 22.0165H285.479L279.691 14.4307L273.903 22.0165H276.877V37.0303C276.874 37.0955 276.867 37.1573 276.867 37.2225C276.867 39.4457 275.059 41.2538 272.835 41.2538C270.612 41.2538 268.804 39.4457 268.804 37.2225C268.804 35.0644 270.492 33.294 272.647 33.1945C274.201 33.1225 275.409 31.7981 275.337 30.2439C275.265 28.6897 273.951 27.4854 272.386 27.5506C267.209 27.7874 263.157 32.0383 263.157 37.2225C263.157 42.561 267.5 46.9046 272.839 46.9046C277.954 46.9046 282.181 42.8836 282.5 37.8366H282.535L282.525 37.2911C282.518 37.0647 282.511 27.8217 282.507 22.0165Z" fill="white"/>
<path d="M15.6273 18.9215C13.4693 18.9215 11.3387 19.4225 9.41389 20.3763V17.7481C9.41389 15.6004 7.67096 13.8506 5.52662 13.8506C3.38227 13.8506 1.63935 15.6004 1.63935 17.7481V32.3674C1.63249 32.5527 1.62563 32.7345 1.62563 32.9198C1.62563 40.636 7.90427 46.9147 15.6239 46.9147C23.3436 46.9147 29.6222 40.636 29.6222 32.9198C29.6256 25.2002 23.3436 18.9215 15.6273 18.9215ZM9.41046 32.6728C9.54083 29.3207 12.2719 26.6926 15.6239 26.6926C19.0583 26.6926 21.8511 29.4854 21.8511 32.9198C21.8511 36.3542 19.0583 39.147 15.6239 39.147C12.2341 39.147 9.44477 36.3919 9.40016 33.0056V32.9884C9.40359 32.9232 9.41046 32.8581 9.41046 32.7929V32.6728Z" fill="white"/>
<path d="M9.21146 9.59638C10.2579 8.54994 10.7897 7.26677 10.7897 5.77773C10.7897 4.2887 10.2579 3.00552 9.21146 1.95908C8.16502 0.912644 6.87841 0.384277 5.39281 0.384277C3.90377 0.384277 2.6206 0.916075 1.57416 1.95908C0.531149 3.00209 -0.000648499 4.28527 -0.000648499 5.7743C-0.000648499 7.26334 0.531149 8.54994 1.57416 9.59295C2.61717 10.6428 3.90034 11.1712 5.39281 11.1712C6.88527 11.1746 8.16845 10.6428 9.21146 9.59638Z" fill="white"/>
<path d="M175.345 26.4561C169.711 26.4561 165.128 31.0398 165.128 36.6769C165.128 42.3105 169.711 46.8942 175.345 46.8942C180.979 46.8942 185.562 42.3105 185.562 36.6769C185.562 31.0398 180.979 26.4561 175.345 26.4561ZM179.682 36.6734C179.682 39.0648 177.736 41.0102 175.345 41.0102C172.954 41.0102 171.008 39.0648 171.008 36.6734C171.008 34.2821 172.954 32.3367 175.345 32.3367C177.736 32.3367 179.682 34.2821 179.682 36.6734Z" fill="white"/>
<path d="M153.51 26.4526C147.877 26.4526 143.29 31.0364 143.29 36.67C143.29 36.8073 143.293 36.9411 143.3 37.0543V51.3305C143.3 52.9567 144.617 54.2811 146.24 54.2811C147.863 54.2811 149.181 52.9567 149.181 51.3305V45.9302C150.529 46.5614 152.011 46.8942 153.51 46.8942C159.144 46.8942 163.728 42.3105 163.728 36.6734C163.731 31.0364 159.144 26.4526 153.51 26.4526ZM149.177 36.6048C149.211 34.2478 151.153 32.3333 153.51 32.3333C155.902 32.3333 157.847 34.2786 157.847 36.67C157.847 39.0614 155.902 41.0067 153.51 41.0067C151.174 41.0067 149.273 39.178 149.181 36.8621V36.7626C149.181 36.7112 149.181 36.6597 149.177 36.6048Z" fill="white"/>
<path d="M200.466 29.9214C200.449 29.9043 200.432 29.8905 200.405 29.8665C200.35 29.8151 200.295 29.7636 200.264 29.7396C198.813 28.3878 196.929 27.6433 194.96 27.6433H194.956C194.709 27.6433 194.452 27.657 194.188 27.681C194.119 27.6879 194.054 27.6982 193.989 27.7085L193.834 27.7325C193.701 27.7496 193.563 27.7702 193.433 27.7942C193.354 27.8114 193.275 27.8285 193.2 27.8491L193.035 27.8903C192.922 27.9177 192.809 27.9452 192.695 27.9795C192.191 27.036 191.206 26.4287 190.108 26.4287C188.486 26.4287 187.168 27.7496 187.168 29.3759V43.9437C187.168 45.57 188.486 46.8943 190.108 46.8943C191.731 46.8943 193.049 45.57 193.049 43.9437V35.435C193.049 34.8997 193.279 34.3851 193.677 34.0248L193.745 33.9597C193.766 33.9425 193.79 33.9253 193.838 33.891L193.9 33.8464C193.924 33.8293 193.948 33.8156 193.996 33.7881L194.061 33.7504C194.081 33.7401 194.102 33.7298 194.153 33.7058L194.407 33.6063C194.425 33.5994 194.445 33.596 194.462 33.5925L194.586 33.5617C194.613 33.5548 194.641 33.5514 194.696 33.5445L194.771 33.5342C194.833 33.5274 194.898 33.5239 194.96 33.5239C195.471 33.5239 195.951 33.7229 196.308 34.0832C196.881 34.6561 197.581 34.9478 198.387 34.9478C199.194 34.9478 199.893 34.6561 200.466 34.0832C201.039 33.5102 201.331 32.8069 201.328 32.004C201.328 31.1977 201.039 30.4978 200.466 29.9249V29.9214Z" fill="white"/>
<path d="M212.533 39.5999C211.723 39.5999 211.023 39.8881 210.451 40.4577C209.967 40.9414 209.26 41.1233 208.612 40.9517V35.7778H211.754C213.381 35.7778 214.701 34.4569 214.701 32.8375C214.701 31.2181 213.377 29.8972 211.754 29.8972H208.612V29.1801C208.612 27.5538 207.291 26.2295 205.671 26.2295C204.052 26.2295 202.731 27.5538 202.731 29.1801V42.5368C202.731 43.3465 203.019 44.0464 203.589 44.616C203.664 44.6914 203.74 44.7601 203.798 44.8047C205.28 46.1839 207.191 46.877 209.102 46.877C210.986 46.877 212.869 46.2045 214.341 44.8596C214.448 44.7772 214.533 44.7017 214.616 44.6194C215.185 44.0499 215.473 43.3499 215.473 42.5402C215.473 41.7305 215.185 41.0272 214.612 40.4577C214.039 39.8881 213.339 39.5999 212.533 39.5999Z" fill="white"/>
<path d="M138.726 27.434L138.768 27.4786C139.337 28.0482 140.041 28.3398 140.85 28.3398C141.66 28.3398 142.36 28.0516 142.933 27.4786C143.502 26.9057 143.794 26.2057 143.794 25.3995C143.794 24.5898 143.506 23.8898 142.933 23.3169C142.864 23.2483 142.792 23.1831 142.717 23.1213C139.629 20.2565 134.887 20.3388 131.913 23.3134C128.931 26.2949 128.849 31.04 131.72 34.1244C131.779 34.1964 131.844 34.265 131.913 34.3337L135.368 37.7886C136.078 38.5366 136.064 39.7237 135.33 40.4545C134.602 41.1853 133.402 41.1956 132.678 40.4991L132.63 40.4476C132.057 39.8781 131.36 39.5899 130.551 39.5899C129.741 39.5899 129.041 39.8781 128.468 40.4476C127.898 41.0206 127.61 41.7205 127.61 42.5302C127.61 43.3433 127.898 44.0433 128.468 44.6094C128.54 44.6849 128.615 44.75 128.694 44.8152C130.201 46.2116 132.098 46.9047 133.992 46.9047C135.982 46.9047 137.968 46.1396 139.492 44.6162C142.47 41.6382 142.552 36.8932 139.684 33.8087C139.625 33.7367 139.56 33.6646 139.492 33.596L136.074 30.1754L136.05 30.1513C135.326 29.4068 135.333 28.206 136.071 27.4718C136.795 26.7444 137.992 26.7307 138.726 27.434Z" fill="white"/>
<path d="M231.812 23.1313C228.724 20.2528 223.972 20.3351 220.994 23.3132C218.012 26.2947 217.93 31.0363 220.802 34.1241C220.86 34.1962 220.922 34.2648 220.994 34.3368L224.456 37.7987C225.159 38.5466 225.145 39.7269 224.414 40.4611C223.687 41.1884 222.486 41.2022 221.756 40.5023L221.714 40.4576C221.141 39.8881 220.441 39.5999 219.635 39.5999C218.825 39.5999 218.126 39.8881 217.553 40.4576C216.983 41.0306 216.695 41.7305 216.695 42.5402C216.695 43.3534 216.983 44.0533 217.553 44.6194C217.625 44.6949 217.7 44.7635 217.779 44.8252C219.285 46.2182 221.183 46.9113 223.076 46.9113C225.066 46.9113 227.053 46.1462 228.576 44.6228C231.554 41.6448 231.637 36.8998 228.768 33.8119C228.71 33.7398 228.645 33.6712 228.576 33.6026L225.149 30.1751C224.411 29.4306 224.414 28.2229 225.156 27.4784C225.883 26.751 227.077 26.7373 227.821 27.4475L227.856 27.4852C228.425 28.0548 229.129 28.3464 229.938 28.3464C230.748 28.3464 231.448 28.0582 232.017 27.4852C232.587 26.9122 232.879 26.2123 232.879 25.4061C232.879 24.5964 232.59 23.8964 232.021 23.3269C231.939 23.2411 231.863 23.1725 231.812 23.1313Z" fill="white"/>
<path d="M47.6416 28.0687C45.9775 28.0687 44.4165 28.5147 43.0715 29.2935V23.3923C43.0715 22.1228 42.0457 21.0935 40.7831 21.0935C39.5171 21.0935 38.4946 22.1228 38.4946 23.3923V36.8656C38.4912 36.9857 38.4843 37.1058 38.4843 37.2293C38.4843 42.29 42.5843 46.3865 47.645 46.3865C52.7022 46.3865 56.8056 42.2865 56.8056 37.2293C56.7988 32.1721 52.6988 28.0687 47.6416 28.0687ZM47.6416 41.8096C45.1301 41.8096 43.0887 39.7854 43.0647 37.2773C43.0681 37.2327 43.0715 37.1881 43.0715 37.1435V37.0475C43.1676 34.6046 45.1747 32.649 47.6416 32.649C50.1702 32.649 52.2219 34.7007 52.2219 37.2293C52.2184 39.7579 50.1702 41.8096 47.6416 41.8096ZM65.7227 22.14C65.7227 23.0595 65.4002 23.8417 64.7517 24.4868C64.1067 25.1352 63.3244 25.4577 62.4049 25.4577C61.4854 25.4577 60.7032 25.1352 60.0582 24.4868C59.4132 23.8417 59.0906 23.0595 59.0906 22.14C59.0906 21.2239 59.4132 20.4382 60.0582 19.7932C60.7032 19.1482 61.4854 18.8257 62.4049 18.8257C63.3244 18.8257 64.1067 19.1482 64.7517 19.7932C65.4002 20.4382 65.7227 21.2205 65.7227 22.14ZM62.525 46.39C61.259 46.39 60.2331 45.3641 60.2331 44.0912V30.3434C60.2331 29.0739 61.259 28.0447 62.525 28.0447C63.791 28.0447 64.8135 29.0739 64.8135 30.3434V44.0912C64.8135 45.3607 63.791 46.39 62.525 46.39ZM75.12 22.14C75.12 23.0595 74.7975 23.8417 74.1491 24.4868C73.5041 25.1352 72.7218 25.4577 71.8023 25.4577C70.8828 25.4577 70.1006 25.1352 69.4555 24.4868C68.8105 23.8417 68.488 23.0595 68.488 22.14C68.488 21.2239 68.8105 20.4382 69.4555 19.7932C70.1006 19.1482 70.8828 18.8257 71.8023 18.8257C72.7218 18.8257 73.5041 19.1482 74.1491 19.7932C74.7975 20.4382 75.12 21.2205 75.12 22.14ZM71.6857 46.39C70.4196 46.39 69.3938 45.3641 69.3938 44.0912V30.3434C69.3938 29.0739 70.4196 28.0447 71.6857 28.0447C72.9517 28.0447 73.9741 29.0739 73.9741 30.3434V44.0912C73.9741 45.3607 72.9483 46.39 71.6857 46.39ZM100.31 34.9134V44.0912C100.31 45.3607 99.2842 46.39 98.0217 46.39C96.7556 46.39 95.7298 45.3641 95.7298 44.0912V34.9134C95.7298 33.6508 94.7039 32.625 93.4413 32.625C92.1787 32.625 91.1529 33.6508 91.1529 34.91V34.9134V44.0912C91.1529 45.3607 90.127 46.39 88.8644 46.39C87.5984 46.39 86.5726 45.3641 86.5726 44.0912V34.9168C86.5726 33.6543 85.5467 32.6284 84.2841 32.6284C83.0215 32.6284 81.9957 33.6543 81.9957 34.9134V34.9168V44.0946C81.9957 45.3641 80.9698 46.3934 79.7072 46.3934C78.4412 46.3934 77.4154 45.3675 77.4154 44.0946V34.9168C77.4154 34.8379 77.4188 34.759 77.4256 34.6801C77.5526 30.9953 80.5684 28.0447 84.2841 28.0447C86.0442 28.0447 87.6465 28.7137 88.8644 29.8047C90.079 28.7137 91.6812 28.0447 93.4448 28.0447C97.157 28.0447 100.173 30.9918 100.303 34.6767C100.303 34.7556 100.31 34.8345 100.31 34.9134ZM119.897 28.0447C118.92 28.0447 118.089 28.6588 117.76 29.5234C116.333 28.6039 114.634 28.0687 112.809 28.0687C107.748 28.0687 103.648 32.1721 103.648 37.2293C103.648 42.29 107.748 46.3865 112.809 46.3865C114.638 46.3865 116.336 45.8479 117.767 44.9284C118.1 45.7827 118.926 46.3865 119.897 46.3865C121.163 46.3865 122.186 45.3607 122.186 44.0878V30.3434C122.189 29.0739 121.163 28.0447 119.897 28.0447ZM112.809 41.8096C110.28 41.8096 108.229 39.7614 108.229 37.2293C108.229 34.7007 110.28 32.649 112.809 32.649C115.338 32.649 117.389 34.7007 117.389 37.2293C117.389 39.7614 115.338 41.8096 112.809 41.8096Z" fill="#231815"/>
<path d="M253.101 22.8292C253.087 22.7984 253.066 22.7675 253.049 22.7366C253.032 22.7023 253.015 22.668 252.994 22.6337C252.981 22.6131 252.967 22.5925 252.957 22.5753C252.926 22.5307 252.898 22.4827 252.864 22.4381C252.854 22.4278 252.847 22.4141 252.836 22.4038C252.799 22.3558 252.758 22.3043 252.716 22.2597C252.71 22.2528 252.706 22.2494 252.699 22.2425C252.651 22.1911 252.603 22.143 252.552 22.0984L252.548 22.095C252.39 21.9543 252.212 21.8343 252.013 21.7382C251.742 21.6078 251.457 21.5392 251.172 21.522C251.162 21.522 251.152 21.5186 251.138 21.5186C251.1 21.5152 251.059 21.5186 251.022 21.5186C250.984 21.5186 250.943 21.5186 250.905 21.5186C250.895 21.5186 250.884 21.522 250.871 21.522C250.586 21.5392 250.301 21.6113 250.03 21.7382C249.831 21.8343 249.653 21.9543 249.495 22.095L249.491 22.0984C249.44 22.143 249.392 22.1945 249.344 22.2425C249.337 22.2494 249.333 22.2528 249.327 22.2597C249.285 22.3077 249.244 22.3558 249.207 22.4038C249.196 22.4141 249.189 22.4278 249.179 22.4381C249.145 22.4827 249.117 22.5273 249.086 22.5753C249.073 22.5959 249.059 22.6131 249.049 22.6337C249.028 22.668 249.011 22.7023 248.994 22.7366C248.977 22.7675 248.96 22.7984 248.942 22.8292L239.511 43.0924C238.962 44.2452 239.445 45.6176 240.595 46.1666C241.741 46.7155 243.117 46.2249 243.666 45.0721L251.022 29.2623L258.377 45.0721C258.926 46.2249 260.302 46.7121 261.448 46.1666C262.594 45.6211 263.081 44.2452 262.532 43.0924L253.101 22.8292Z" fill="#E7233B"/>
<path d="M251.018 39.6685C250.099 39.6685 249.316 39.991 248.671 40.636C248.026 41.281 247.704 42.0667 247.704 42.9828C247.704 43.9023 248.026 44.6845 248.671 45.3295C249.316 45.978 250.099 46.3005 251.018 46.3005C251.938 46.3005 252.72 45.978 253.365 45.3295C254.01 44.6845 254.336 43.9023 254.336 42.9828C254.336 42.0667 254.013 41.281 253.365 40.636C252.72 39.991 251.938 39.6685 251.018 39.6685Z" fill="#E7233B"/>
<path d="M318.817 28.0547C317.839 28.0547 317.009 28.6688 316.68 29.5334C315.252 28.6139 313.554 28.0787 311.729 28.0787C306.668 28.0787 302.568 32.1821 302.568 37.2393C302.568 42.3 306.668 46.3966 311.729 46.3966C313.557 46.3966 315.256 45.8579 316.687 44.9384C317.019 45.7927 317.846 46.3966 318.817 46.3966C320.083 46.3966 321.106 45.3707 321.106 44.0978V30.35C321.106 29.0805 320.08 28.0547 318.817 28.0547ZM311.729 41.8162C309.2 41.8162 307.148 39.768 307.148 37.2359C307.148 34.7073 309.2 32.6556 311.729 32.6556C314.257 32.6556 316.309 34.7073 316.309 37.2359C316.306 39.768 314.257 41.8162 311.729 41.8162Z" fill="#E7233B"/>
<path d="M299.875 29.5471C298.729 29.0119 297.367 29.5128 296.828 30.6622L293.095 38.6666L289.362 30.6622C288.827 29.5128 287.462 29.0119 286.316 29.5471C285.17 30.0823 284.676 31.4478 285.211 32.5972L290.951 44.904C291.153 45.4427 291.558 45.9093 292.124 46.1701C292.385 46.2936 292.66 46.3588 292.931 46.3759C292.944 46.3759 292.958 46.3793 292.975 46.3793C293.016 46.3828 293.058 46.3828 293.099 46.3793H293.222C293.236 46.3793 293.25 46.3759 293.267 46.3759C293.538 46.3588 293.812 46.2901 294.073 46.1701C294.636 45.9059 295.041 45.4427 295.246 44.904L300.986 32.5972C301.515 31.4478 301.021 30.0823 299.875 29.5471Z" fill="#E7233B"/>
<path d="M331.278 28.933C330.211 28.933 329.199 29.156 328.283 29.5506C327.974 28.6791 327.13 28.0513 326.132 28.0513C324.873 28.0513 323.85 29.0497 323.85 30.278V44.1699C323.85 45.4016 324.873 46.3966 326.132 46.3966C327.391 46.3966 328.41 45.4016 328.41 44.1699V36.2272C328.41 34.6353 329.656 33.3452 331.275 33.3452C332.894 33.3452 334.14 34.6353 334.14 36.2272V44.1699C334.14 45.4016 335.162 46.3966 336.421 46.3966C337.681 46.3966 338.699 45.4016 338.699 44.1699V36.0625C338.699 36.0076 338.696 35.9528 338.693 35.8979C338.521 32.0243 335.265 28.933 331.278 28.933Z" fill="#E7233B"/>
<path d="M350.639 32.7758C351.734 32.7758 352.784 33.1772 353.6 33.9012C354.557 34.7521 356.019 34.6663 356.87 33.709C357.721 32.7518 357.635 31.2902 356.678 30.4394C355.014 28.9572 352.869 28.144 350.639 28.144C345.623 28.144 341.544 32.2234 341.544 37.2395C341.544 42.2555 345.623 46.3315 350.639 46.3315C352.869 46.3315 355.014 45.515 356.678 44.0362C357.635 43.1853 357.721 41.7238 356.87 40.7665C356.019 39.8093 354.557 39.7235 353.6 40.5744C352.784 41.2983 351.73 41.6997 350.639 41.6997C348.179 41.6997 346.176 39.6995 346.176 37.2395C346.179 34.7761 348.179 32.7758 350.639 32.7758Z" fill="#E7233B"/>
<path d="M375.599 38.55C375.634 38.5466 375.668 38.55 375.702 38.5432C375.737 38.5397 375.771 38.5329 375.805 38.526C375.812 38.526 375.822 38.5226 375.829 38.5226C376.989 38.3373 377.816 37.2806 377.696 36.0969C377.215 31.3553 373.544 27.9106 368.971 27.9106C364.054 27.9106 360.201 31.9146 360.201 37.0233C360.201 42.1216 364.034 46.1153 368.936 46.1359H368.954H368.964H368.974H368.991C371.465 46.1256 373.778 45.1443 375.5 43.3671C376.358 42.4819 376.334 41.0718 375.452 40.214C374.567 39.3563 373.157 39.3803 372.299 40.2621C371.417 41.1713 370.233 41.6756 368.967 41.6756C367.019 41.6722 365.451 40.4062 364.891 38.5569H375.479C375.517 38.5637 375.558 38.5535 375.599 38.55ZM365.012 35.1328C365.66 33.4791 367.149 32.3777 368.971 32.3777C370.776 32.3777 372.254 33.4585 372.913 35.1328H365.012Z" fill="#E7233B"/>
<path d="M279.691 15.2812L274.942 21.505H277.392V37.0506C277.388 37.109 277.382 37.1673 277.382 37.2256C277.382 39.7336 275.344 41.7716 272.836 41.7716C270.327 41.7716 268.289 39.7336 268.289 37.2256C268.289 34.7896 270.194 32.7963 272.623 32.683C273.896 32.6247 274.884 31.544 274.825 30.2711C274.767 28.9982 273.7 28.0135 272.41 28.0684C267.511 28.2949 263.671 32.3159 263.671 37.2256C263.671 42.2794 267.785 46.3931 272.839 46.3931C277.865 46.3931 281.958 42.324 282.003 37.308H282.006C282.003 37.2256 281.993 23.4469 281.993 21.505H284.439L279.691 15.2812Z" fill="#E7233B"/>
<path d="M15.6273 19.4362C13.1742 19.4362 10.8789 20.0949 8.89924 21.2374V17.7482C8.89924 15.8783 7.38962 14.3652 5.52662 14.3652C3.66361 14.3652 2.15399 15.8783 2.15399 17.7482V32.388C2.14713 32.5664 2.14027 32.7414 2.14027 32.9198C2.14027 40.3684 8.17874 46.4 15.6239 46.4C23.0691 46.4 29.1075 40.365 29.1075 32.9198C29.111 25.4747 23.0725 19.4362 15.6273 19.4362ZM15.6273 39.6616C11.9288 39.6616 8.92669 36.6836 8.88895 32.9884C8.89238 32.9233 8.89924 32.8581 8.89924 32.7894V32.6488C9.03991 29.0531 11.994 26.1746 15.6273 26.1746C19.3499 26.1746 22.3692 29.1938 22.3692 32.9164C22.3692 36.6424 19.3499 39.6616 15.6273 39.6616Z" fill="#2096D5"/>
<path d="M8.85121 9.22929C9.80158 8.27892 10.2785 7.12955 10.2785 5.77432C10.2785 4.42253 9.80158 3.26973 8.85121 2.31935C7.90083 1.37241 6.74803 0.895508 5.39624 0.895508C4.04101 0.895508 2.89164 1.37241 1.94127 2.31935C0.987464 3.26973 0.513992 4.42596 0.513992 5.77432C0.513992 7.12955 0.987464 8.27892 1.94127 9.22929C2.89164 10.1831 4.04101 10.6566 5.39624 10.6566C6.74803 10.66 7.90083 10.1865 8.85121 9.22929Z" fill="#2096D5"/>
<path d="M175.345 26.9707C169.986 26.9707 165.642 31.3177 165.642 36.6769C165.642 42.036 169.986 46.3796 175.345 46.3796C180.704 46.3796 185.048 42.036 185.048 36.6769C185.048 31.3143 180.704 26.9707 175.345 26.9707ZM175.345 41.5248C172.665 41.5248 170.494 39.353 170.494 36.6734C170.494 33.9973 172.665 31.8221 175.345 31.8221C178.025 31.8221 180.196 33.9973 180.196 36.6734C180.196 39.3564 178.025 41.5248 175.345 41.5248Z" fill="#2096D5"/>
<path d="M153.51 26.9673C148.151 26.9673 143.804 31.3109 143.804 36.67C143.804 36.8004 143.808 36.9273 143.815 37.0543V51.3305C143.815 52.6754 144.899 53.7665 146.24 53.7665C147.578 53.7665 148.666 52.6788 148.666 51.3305V45.0793C150.093 45.9027 151.743 46.3762 153.51 46.3762C158.87 46.3762 163.213 42.0292 163.213 36.67C163.217 31.3109 158.87 26.9673 153.51 26.9673ZM153.51 41.5214C150.896 41.5214 148.769 39.4491 148.666 36.8622V36.7627C148.666 36.7146 148.663 36.6666 148.659 36.6186C148.687 33.9596 150.848 31.8187 153.51 31.8187C156.19 31.8187 158.362 33.9904 158.362 36.67C158.362 39.3496 156.19 41.5214 153.51 41.5214Z" fill="#2096D5"/>
<path d="M200.106 30.2885C200.089 30.2714 200.068 30.2576 200.051 30.2405C200.007 30.1959 199.962 30.1547 199.914 30.117C198.518 28.8166 196.744 28.1579 194.96 28.1579C194.72 28.1579 194.479 28.1716 194.239 28.1956C194.15 28.2059 194.061 28.2231 193.972 28.2334C193.824 28.254 193.68 28.2711 193.533 28.2986C193.43 28.3192 193.33 28.3466 193.231 28.3741C193.1 28.4049 192.97 28.4358 192.839 28.4735C192.743 28.501 192.651 28.5387 192.558 28.573C192.51 28.5902 192.462 28.6074 192.414 28.6245C192.098 27.6501 191.186 26.9468 190.108 26.9468C188.767 26.9468 187.683 28.0378 187.683 29.3793V43.9471C187.683 45.2921 188.77 46.3831 190.108 46.3831C191.45 46.3831 192.534 45.2955 192.534 43.9471V35.4384C192.534 34.7282 192.843 34.09 193.33 33.644C193.361 33.6165 193.388 33.5891 193.419 33.5651C193.457 33.5342 193.495 33.5068 193.533 33.4793C193.56 33.4587 193.584 33.4381 193.611 33.421C193.649 33.3935 193.69 33.3729 193.731 33.3489C193.759 33.3318 193.786 33.3146 193.814 33.3009C193.852 33.2803 193.893 33.2632 193.934 33.2426C193.965 33.2289 193.999 33.2117 194.03 33.198C194.068 33.1808 194.105 33.1705 194.147 33.1568C194.184 33.1431 194.219 33.1294 194.256 33.1191C194.294 33.1088 194.335 33.0985 194.373 33.0882C194.411 33.0779 194.449 33.0676 194.486 33.0607C194.531 33.0504 194.579 33.047 194.624 33.0401C194.654 33.0367 194.689 33.0299 194.72 33.0264C194.799 33.0196 194.877 33.0127 194.96 33.0127C195.581 33.0127 196.202 33.2494 196.675 33.7229C197.152 34.1998 197.722 34.4365 198.391 34.4365C199.06 34.4365 199.629 34.1998 200.106 33.7229C200.583 33.246 200.82 32.6765 200.816 32.0074C200.816 31.3384 200.58 30.7654 200.106 30.2885Z" fill="#2096D5"/>
<path d="M212.533 40.118C211.861 40.118 211.288 40.3547 210.814 40.8248C210.08 41.5624 208.989 41.7237 208.097 41.3154V35.2632H211.754C213.099 35.2632 214.187 34.179 214.187 32.8375C214.187 31.4994 213.099 30.4118 211.754 30.4118H208.097V29.1801C208.097 27.8352 207.013 26.7441 205.671 26.7441C204.33 26.7441 203.246 27.8318 203.246 29.1801V42.5368C203.246 43.2093 203.482 43.7822 203.956 44.2523C204.017 44.314 204.086 44.3724 204.151 44.4307C206.927 47.0142 211.222 47.0279 214.012 44.4684C214.094 44.4033 214.177 44.3346 214.255 44.2592C214.729 43.7857 214.962 43.2161 214.962 42.5437C214.962 41.8712 214.725 41.2982 214.255 40.8248C213.775 40.3547 213.206 40.118 212.533 40.118Z" fill="#2096D5"/>
<path d="M142.377 23.5091C139.522 20.8467 135.055 20.8981 132.273 23.6772C129.49 26.4631 129.439 30.9337 132.105 33.7848C132.156 33.85 132.211 33.9117 132.273 33.9701L135.69 37.3907C135.694 37.3907 135.697 37.3942 135.697 37.3976C136.637 38.3445 136.637 39.8747 135.69 40.8217C134.757 41.7583 133.247 41.7686 132.297 40.856C132.287 40.8423 132.273 40.8285 132.263 40.8182C131.789 40.3482 131.216 40.1115 130.547 40.1115C129.875 40.1115 129.302 40.3482 128.828 40.8182C128.355 41.2917 128.121 41.8647 128.121 42.5371C128.121 43.2096 128.358 43.7826 128.828 44.2526C128.893 44.3178 128.959 44.3761 129.024 44.431C131.878 47.09 136.342 47.0351 139.121 44.2561C141.904 41.4736 141.955 37.003 139.289 34.1485C139.238 34.0833 139.183 34.0215 139.121 33.9632L135.704 30.5425C135.7 30.5391 135.697 30.5357 135.694 30.5322C134.757 29.5853 134.757 28.0551 135.7 27.1116C136.637 26.1749 138.143 26.1681 139.094 27.0773C139.107 27.091 139.118 27.1047 139.128 27.115C139.601 27.5885 140.174 27.8252 140.847 27.8252C141.519 27.8252 142.092 27.5885 142.562 27.115C143.036 26.6415 143.272 26.0686 143.272 25.3995C143.272 24.7271 143.036 24.1541 142.562 23.6806C142.504 23.6154 142.439 23.5606 142.377 23.5091Z" fill="#2096D5"/>
<path d="M228.178 27.0739C228.192 27.0876 228.202 27.1013 228.213 27.1116C228.686 27.5851 229.259 27.8218 229.931 27.8218C230.604 27.8218 231.177 27.5851 231.647 27.1116C232.12 26.6381 232.357 26.0652 232.357 25.3961C232.357 24.7237 232.12 24.1507 231.647 23.6772C231.585 23.6155 231.523 23.5606 231.458 23.5057C228.604 20.8433 224.137 20.8947 221.354 23.6738C218.568 26.4597 218.52 30.9302 221.186 33.7814C221.237 33.8466 221.292 33.9083 221.351 33.9666L224.771 37.3873C224.775 37.3873 224.778 37.3907 224.778 37.3942C225.718 38.3411 225.715 39.8713 224.771 40.8183C223.835 41.7549 222.328 41.7652 221.378 40.8526C221.364 40.8388 221.354 40.8251 221.344 40.8148C220.87 40.3448 220.297 40.108 219.628 40.108C218.956 40.108 218.383 40.3448 217.909 40.8148C217.436 41.2883 217.199 41.8613 217.199 42.5337C217.199 43.2062 217.436 43.7792 217.909 44.2492C217.975 44.3144 218.04 44.3727 218.105 44.4276C220.96 47.0866 225.423 47.0317 228.202 44.2526C230.985 41.4701 231.036 36.9996 228.37 34.1451C228.319 34.0799 228.264 34.0181 228.202 33.9598L224.782 30.5391C224.778 30.5357 224.775 30.5323 224.771 30.5288C223.835 29.5819 223.835 28.0517 224.778 27.1082C225.722 26.1715 227.228 26.1647 228.178 27.0739Z" fill="#2096D5"/>
</g>
</g>
<defs>
<clipPath id="clip0_1_331">
<rect width="378.22" height="56" fill="white"/>
</clipPath>
<clipPath id="clip1_1_331">
<rect width="378.221" height="56" fill="white" transform="translate(-0.000648499)"/>
</clipPath>
</defs>
</svg>
