<svg width="196" height="46" viewBox="0 0 196 46" fill="none" xmlns="http://www.w3.org/2000/svg">
<path d="M39.9945 23.46C38.6041 23.46 37.3 23.8348 36.1757 24.4831V19.5513C36.1757 18.4907 35.3175 17.6325 34.2607 17.6325C33.2038 17.6325 32.3456 18.4907 32.3456 19.5513V30.8128C32.3419 30.914 32.3381 31.0152 32.3381 31.1164C32.3381 35.3437 35.7635 38.769 39.9945 38.769C44.2218 38.769 47.6471 35.3437 47.6471 31.1164C47.6509 26.8853 44.2218 23.46 39.9945 23.46ZM39.9945 34.939C37.8958 34.939 36.1907 33.2488 36.1682 31.1501C36.1719 31.1127 36.1757 31.0752 36.1757 31.0377V30.959C36.2544 28.9166 37.9333 27.2826 39.9945 27.2826C42.1082 27.2826 43.8208 28.999 43.8208 31.1089C43.8246 33.2263 42.1082 34.939 39.9945 34.939ZM55.1049 18.5019C55.1049 19.2702 54.835 19.9223 54.2954 20.4619C53.7557 21.0053 53.1036 21.2714 52.3354 21.2714C51.5671 21.2714 50.9113 21.0016 50.3754 20.4619C49.8357 19.9223 49.5659 19.2702 49.5659 18.5019C49.5659 17.7337 49.8357 17.0816 50.3754 16.5382C50.915 15.9985 51.5671 15.7287 52.3354 15.7287C53.1036 15.7287 53.7557 15.9985 54.2954 16.5382C54.835 17.0816 55.1049 17.7374 55.1049 18.5019ZM52.4366 38.769C51.3797 38.769 50.5215 37.9108 50.5215 36.8502V25.3601C50.5215 24.2995 51.3797 23.4413 52.4366 23.4413C53.4934 23.4413 54.3516 24.2995 54.3516 25.3601V36.8502C54.3478 37.9108 53.4934 38.769 52.4366 38.769ZM62.9599 18.5019C62.9599 19.2702 62.69 19.9223 62.1504 20.4619C61.6107 21.0053 60.9586 21.2714 60.1904 21.2714C59.4221 21.2714 58.7663 21.0016 58.2304 20.4619C57.6907 19.9223 57.4209 19.2702 57.4209 18.5019C57.4209 17.7337 57.6907 17.0816 58.2304 16.5382C58.77 15.9985 59.4221 15.7287 60.1904 15.7287C60.9586 15.7287 61.6107 15.9985 62.1504 16.5382C62.69 17.0816 62.9599 17.7374 62.9599 18.5019ZM60.0892 38.769C59.0324 38.769 58.1742 37.9108 58.1742 36.8502V25.3601C58.1742 24.2995 59.0324 23.4413 60.0892 23.4413C61.146 23.4413 62.0042 24.2995 62.0042 25.3601V36.8502C62.0042 37.9108 61.146 38.769 60.0892 38.769ZM84.0102 29.1789V36.8465C84.0102 37.9071 83.152 38.7653 82.0951 38.7653C81.0383 38.7653 80.1801 37.9071 80.1801 36.8465V29.1789C80.1801 28.1221 79.3219 27.2639 78.2651 27.2639C77.2083 27.2639 76.3538 28.1183 76.3501 29.1751V29.1789V36.8465C76.3501 37.9071 75.4919 38.7653 74.435 38.7653C73.3782 38.7653 72.52 37.9071 72.52 36.8465V29.1789C72.52 28.1221 71.6618 27.2639 70.605 27.2639C69.5481 27.2639 68.6937 28.1183 68.6899 29.1751V29.1789V36.8465C68.6899 37.9071 67.8317 38.7653 66.7749 38.7653C65.7181 38.7653 64.8599 37.9071 64.8599 36.8465V29.1789C64.8599 29.1114 64.8636 29.0477 64.8711 28.9803C64.9761 25.9035 67.4982 23.4375 70.6012 23.4375C72.074 23.4375 73.4119 23.9959 74.4275 24.9066C75.4431 23.9959 76.781 23.4375 78.2538 23.4375C81.3569 23.4375 83.879 25.8997 83.9839 28.9803C84.0064 29.044 84.0102 29.1114 84.0102 29.1789ZM100.38 23.4375C99.5628 23.4375 98.8657 23.951 98.5921 24.6743C97.4004 23.906 95.98 23.4563 94.4548 23.4563C90.2275 23.4563 86.7984 26.8853 86.7984 31.1127C86.7984 35.34 90.2237 38.7653 94.4548 38.7653C95.9838 38.7653 97.4041 38.3156 98.5996 37.5473C98.8769 38.2593 99.5703 38.7653 100.38 38.7653C101.437 38.7653 102.295 37.9071 102.295 36.8465V25.3601C102.295 24.2995 101.437 23.4375 100.38 23.4375ZM94.4548 34.9427C92.3411 34.9427 90.6285 33.2301 90.6285 31.1164C90.6285 29.0027 92.3411 27.2901 94.4548 27.2901C96.5684 27.2901 98.2811 29.0065 98.2811 31.1164C98.2848 33.2301 96.5684 34.9427 94.4548 34.9427Z" fill="#231815"/>
<path d="M146.715 22.5419C142.237 22.5419 138.605 26.1733 138.605 30.6517C138.605 35.1301 142.237 38.7578 146.715 38.7578C151.194 38.7578 154.825 35.1301 154.825 30.6517C154.825 26.1733 151.194 22.5419 146.715 22.5419ZM146.715 34.7029C144.474 34.7029 142.66 32.889 142.66 30.648C142.66 28.4106 144.478 26.5931 146.715 26.5931C148.956 26.5931 150.77 28.4106 150.77 30.648C150.77 32.8928 148.956 34.7029 146.715 34.7029Z" fill="#2096D5"/>
<path d="M136.578 30.6442C136.578 26.1658 132.946 22.5381 128.468 22.5381C123.99 22.5381 120.358 26.1658 120.358 30.6442C120.358 30.7529 120.362 30.8578 120.366 30.9665V42.8951C120.366 44.0194 121.273 44.9301 122.393 44.9301C123.514 44.9301 124.421 44.0194 124.421 42.8951V37.671C125.612 38.3605 126.991 38.754 128.468 38.754C132.946 38.7578 136.578 35.1264 136.578 30.6442ZM132.523 30.648C132.523 32.8853 130.709 34.7029 128.468 34.7029C126.283 34.7029 124.507 32.9715 124.421 30.8091V30.7267C124.421 30.6854 124.417 30.648 124.417 30.6067C124.439 28.3844 126.246 26.593 128.468 26.593C130.709 26.593 132.523 28.4069 132.523 30.648Z" fill="#2096D5"/>
<path d="M167.406 25.3151C167.803 25.7124 168.002 26.1921 168.002 26.7467C168.002 27.3088 167.803 27.7848 167.406 28.182C167.008 28.5793 166.529 28.7779 165.97 28.7779C165.412 28.7779 164.936 28.5793 164.539 28.182C164.142 27.7848 163.943 27.3088 163.943 26.7504C163.943 26.192 164.142 25.7124 164.539 25.3151C164.936 24.9179 165.412 24.7192 165.97 24.7192C166.533 24.7192 167.008 24.9179 167.406 25.3151Z" fill="#2096D5"/>
<path d="M161.08 29.6136C161.08 28.4931 161.987 27.5862 163.107 27.5862V23.5312C159.749 23.5312 157.025 26.2558 157.025 29.6136H161.08Z" fill="#2096D5"/>
<path d="M161.672 28.182C162.463 27.3913 163.748 27.3913 164.539 28.182L167.406 25.3151C165.03 22.9391 161.181 22.9391 158.805 25.3151L161.672 28.182Z" fill="#2096D5"/>
<path d="M159.052 38.7578C157.932 38.7578 157.025 37.8471 157.025 36.7228V24.5506C157.025 23.4263 157.932 22.5156 159.052 22.5156C160.173 22.5156 161.08 23.4263 161.08 24.5506V36.7266C161.08 37.8509 160.173 38.7578 159.052 38.7578Z" fill="#2096D5"/>
<path d="M179.818 35.5536C179.818 34.9914 179.619 34.5117 179.226 34.1182C178.828 33.7248 178.352 33.5261 177.79 33.5261C177.228 33.5261 176.749 33.7248 176.355 34.1182C175.74 34.7329 174.83 34.8678 174.084 34.5305V29.4712H177.142C178.266 29.4712 179.177 28.5643 179.177 27.4438C179.177 26.327 178.266 25.4163 177.142 25.4163H174.084V24.3857C174.084 23.2614 173.177 22.3508 172.056 22.3508C170.936 22.3508 170.029 23.2614 170.029 24.3857V35.5461C170.029 36.1082 170.228 36.5842 170.621 36.9814C170.674 37.0339 170.73 37.0826 170.786 37.1276C173.106 39.2862 176.696 39.2974 179.023 37.1576C179.095 37.1013 179.162 37.0451 179.226 36.9814C179.623 36.5917 179.818 36.1157 179.818 35.5536Z" fill="#2096D5"/>
<path d="M113.586 22.6543C114.37 21.8711 115.629 21.8636 116.419 22.6243C116.431 22.6356 116.438 22.6468 116.449 22.6581C116.843 23.0515 117.323 23.2502 117.885 23.2502C118.447 23.2502 118.923 23.0515 119.32 22.6581C119.714 22.2646 119.912 21.7849 119.912 21.2227C119.912 20.6606 119.714 20.1846 119.32 19.7874C119.268 19.7349 119.215 19.6899 119.163 19.645C116.779 17.4189 113.043 17.4639 110.719 19.7874C108.392 22.1146 108.351 25.851 110.581 28.2345C110.626 28.287 110.671 28.3394 110.719 28.3881L113.575 31.2476C113.579 31.2476 113.579 31.2513 113.583 31.2513C114.37 32.0421 114.366 33.3237 113.575 34.1107C112.796 34.894 111.533 34.9015 110.742 34.1407C110.731 34.1295 110.723 34.1182 110.712 34.107C110.318 33.7135 109.839 33.5149 109.277 33.5149C108.714 33.5149 108.235 33.7135 107.841 34.107C107.448 34.5042 107.249 34.9839 107.249 35.5423C107.249 36.1045 107.448 36.5842 107.841 36.9777C107.894 37.0301 107.95 37.0789 108.006 37.1238C110.393 39.3462 114.122 39.3012 116.442 36.9777C118.769 34.6504 118.81 30.9178 116.584 28.5306C116.539 28.4781 116.494 28.4256 116.442 28.3769L113.586 25.5175C113.583 25.5137 113.583 25.5137 113.579 25.51C112.796 24.723 112.799 23.445 113.586 22.6543Z" fill="#2096D5"/>
<path d="M188.033 22.6543C188.816 21.8711 190.075 21.8636 190.866 22.6243C190.877 22.6356 190.885 22.6468 190.896 22.6581C191.289 23.0515 191.769 23.2502 192.331 23.2502C192.893 23.2502 193.373 23.0515 193.766 22.6581C194.16 22.2646 194.359 21.7849 194.359 21.2227C194.359 20.6606 194.16 20.1846 193.766 19.7874C193.714 19.7349 193.661 19.6899 193.609 19.645C191.222 17.4189 187.489 17.4639 185.166 19.7874C182.838 22.1146 182.797 25.851 185.027 28.2345C185.072 28.287 185.117 28.3394 185.166 28.3881L188.025 31.2476C188.029 31.2476 188.029 31.2513 188.033 31.2513C188.816 32.0421 188.816 33.3237 188.025 34.1107C187.242 34.894 185.983 34.9015 185.188 34.1407C185.177 34.1295 185.169 34.1182 185.158 34.107C184.765 33.7135 184.285 33.5149 183.723 33.5149C183.161 33.5149 182.681 33.7135 182.288 34.107C181.894 34.5042 181.695 34.9839 181.695 35.5423C181.695 36.1045 181.894 36.5842 182.288 36.9777C182.34 37.0301 182.396 37.0789 182.452 37.1238C184.84 39.3462 188.568 39.3012 190.888 36.9777C193.216 34.6504 193.257 30.9178 191.031 28.5306C190.986 28.4781 190.941 28.4256 190.892 28.3769L188.033 25.5175C188.029 25.5137 188.029 25.5137 188.025 25.51C187.242 24.723 187.242 23.445 188.033 22.6543Z" fill="#2096D5"/>
<path d="M13.244 16.2421C11.1941 16.2421 9.27533 16.793 7.61888 17.7449V14.833C7.61888 13.2703 6.35969 12.0073 4.80068 12.0073C3.24542 12.0073 1.98248 13.2703 1.98248 14.833V27.0652C1.97498 27.2152 1.97123 27.3613 1.97123 27.5112C1.97123 33.736 7.01552 38.7765 13.2403 38.7765C19.4651 38.7765 24.5094 33.7322 24.5094 27.5112C24.5094 21.2902 19.4651 16.2421 13.244 16.2421ZM13.244 33.1439C10.1523 33.1439 7.64512 30.6555 7.61139 27.5674C7.61514 27.5112 7.61888 27.4587 7.61888 27.4025V27.2864C7.73881 24.2808 10.2047 21.8748 13.244 21.8748C16.3546 21.8748 18.8767 24.4007 18.8767 27.5075C18.8767 30.6255 16.3546 33.1439 13.244 33.1439ZM8.77315 4.82693C8.77315 5.9587 8.3759 6.92184 7.58141 7.71259C6.78691 8.51083 5.82378 8.90433 4.69575 8.90433C3.56397 8.90433 2.60083 8.50708 1.81009 7.71259C1.01559 6.91809 0.618347 5.9587 0.618347 4.82693C0.618347 3.6989 1.01559 2.73201 1.81009 1.93752C2.59709 1.14677 3.56022 0.749527 4.692 0.749527C5.82003 0.749527 6.78317 1.14677 7.57766 1.94127C8.3759 2.73576 8.77315 3.6989 8.77315 4.82693Z" fill="#2096D5"/>
</svg>
